<?xml version="1.0" encoding="utf-8"?>
<!-- Generator: Adobe Illustrator 22.0.0, SVG Export Plug-In . SVG Version: 6.00 Build 0)  -->
<svg version="1.1" id="Layer_1" xmlns="http://www.w3.org/2000/svg" xmlns:xlink="http://www.w3.org/1999/xlink" x="0px" y="0px"
	 viewBox="0 0 394.7 344.5" style="enable-background:new 0 0 394.7 344.5;" xml:space="preserve">
<style type="text/css">
	.st0{fill:#F59BB6;}
	.st1{fill:#FFFFFF;}
	.st2{fill:#3A3B3A;}
	.st3{fill:#6EB644;}
	.st4{fill:#579B43;}
	.st5{fill:#9E3A23;}
	.st6{fill:#C05527;}
	.st7{fill:#F38198;}
	.st8{fill:#9DCA3E;}
	.st9{fill:#EA3D56;}
</style>
<g>
	<path class="st0" d="M68.6,66.5c0.7-10.6,0.3-21.3-1-31.9c-6.4,0.9-12.5-3.4-16.2-8.8c-3.9-5.7-5.6-13.8-1.3-19.2
		c2.9-3.7,7.8-5.2,12.4-5.9C71-0.6,80.4,0,87.3,5.2c6.9,5.1,10.2,15.7,5.4,22.8c-2.8,4.1-7.5,6.3-12.2,7.8c-1.1,0.3-2.3,0.7-2.9,1.7
		c-0.4,0.7-0.4,1.5-0.4,2.3c0.2,15.7,0.3,31.4,0.5,47.1L68.6,66.5z"/>
	<path class="st0" d="M21,99.5c0.7-10.6,0.3-54.4-1-65c-6.4,0.9-12.5-3.4-16.2-8.8C-0.1,20-1.8,11.9,2.5,6.5
		c2.9-3.7,7.8-5.2,12.4-5.9c8.5-1.3,17.9-0.7,24.8,4.5c6.9,5.1,10.2,15.7,5.4,22.8c-2.8,4.1-7.5,6.3-12.2,7.8
		c-1.1,0.3-2.3,0.7-2.9,1.7c-0.4,0.7-0.4,1.5-0.4,2.3c0.2,15.7,0.3,49.2,0.5,64.9L21,99.5z"/>
	<path class="st1" d="M53,11.3c4.1,0.6,7.2,1,10.7,1.4c7.4,0.7,14.8,1.3,22.3,2c-0.7,6.3-5.5,12-11.6,13.7c-1.7,0.5-3.5,0.7-5.3,0.9
		c-1.7,0.2-3.3,0.3-5,0.1c-3.9-0.5-7.4-3.1-9.4-6.6C52.8,19.3,52.3,15.2,53,11.3L53,11.3z"/>
	<path class="st1" d="M3.6,9.6c4.1,0.6,7.2,1,10.7,1.4c7.4,0.7,14.8,1.3,22.3,2c-0.7,6.3-5.5,12-11.6,13.7c-1.7,0.5-3.5,0.7-5.3,0.9
		c-1.7,0.2-3.3,0.3-5,0.1c-3.9-0.5-7.4-3.1-9.4-6.6C3.4,17.6,2.9,13.5,3.6,9.6L3.6,9.6z"/>
	<path class="st2" d="M60.8,12.3c-0.3,2.3,0.6,4.7,2,6.5c1.3,1.6,3.2,2.9,5.3,2.8c0.4,0,0.9-0.1,1.3-0.2c3.2-0.9,6.7-4.4,6.2-7.7
		L60.8,12.3z"/>
	<path class="st2" d="M11.7,10.6c-0.3,2.3,0.6,4.7,2,6.5c1.3,1.6,3.2,2.9,5.3,2.8c0.4,0,0.9-0.1,1.3-0.2c3.2-0.9,6.7-4.4,6.2-7.7
		L11.7,10.6z"/>
	<path class="st3" d="M91.8,252.9c18.6,10.4,36,27.8,59.9,19.7c3.5-0.9,6.9-2.2,10.1-4c6.4-3.4,12-8.5,16.2-15.8
		c2-2.9,4-5.8,6.1-8.7c-0.6,4.4-0.8,8.4-0.5,12.2c0.5,16.8,15.1,34.2,28.2,41.2c2.4,1.5,4.9,2.9,7.4,4.2c2.5,1.3,5,2.4,7.6,3.4
		c3.4,1.4,6.9,2.5,10.5,3.5c42.7,8.1,89.2-0.6,124.5-29.6c2.6-2.5,5.1-5.3,7.5-8.2c4.7-5.8,8.7-12.4,12-19.6
		c1.4-2.8,2.7-5.7,3.7-8.7c9-30,6.7-61.2-4.8-88.7c-1.4-3.4-3-6.8-4.8-10.1c-9.5-17.5-23.1-30.7-39-40.8c-3.2-2-6.4-3.9-9.7-5.7
		c-38.1-21.6-84.6-24.5-125.7-14c-3.9,1-7.7,2.1-11.6,3.3c-45.5,14.4-92.1,44.9-122.9,81.6c-2.8,3.3-5.5,6.7-7.8,10.3
		c-3.1,7.4-4,14.5-3.5,21.5c0.2,3.5,0.8,7,1.7,10.4c0.7,3,1.6,5.7,2.8,8.2c6.9,15.5,24.4,18.4,28.9,32
		C89.7,251.5,90.7,252.2,91.8,252.9z"/>
	<path class="st4" d="M136.6,274.7c10.1,0.3,25.5-3.9,32.7-9.7c7.7-6.1,12.3-15.3,15.8-24.5s6-18.8,10.7-27.4
		c4.1-7.5,9.6-14,15.3-20.3c4.5-4.9,9.1-9.8,14.5-13.6c12.1-8.6,27.1-11.6,41.7-14.5c4.6-0.9,9.2-1.8,13.8-1.6
		c5.3,0.2,10.5,1.7,15.6,3.3c10.7,3.5,21,7.9,28.7,16.1c9.5,10,14,24.9,11.7,35.9c3.2-17.3-4.5-47.9-21.2-58.8
		c-6.8-4.5-14.8-6.8-22.9-8c-12.4-1.9-25.1-1.4-37.3,1.6c-33.3,8.1-59.8,33.5-80.4,61c-1.9,2.6-3.9,5.2-5.1,8.2
		c-4.5,11.1,1.3,24.4-3.4,35.4c-3.6,8.3-9.2,9.9-17.2,13.9C146.9,272.9,139.3,275.1,136.6,274.7L136.6,274.7z"/>
	<path class="st5" d="M38.4,229.2c-5.2-8.7-2-22,8.8-24.1c10.1-1.9,22.1-0.7,32.3-0.6c11.5,0.2,23,1.1,34.1,4
		c10,2.6,19.7,6.6,28.3,12.4c7.4,5,18.3,13.4,19.1,22.9c0.7,7.6-3.5,13.6-10.1,17c-15.8,8.2-37.8,4.8-54.3,0.9
		c-9-2.1-17.8-5.2-26.2-9c-8-3.6-18.9-8-25.2-14.2C42.4,235.8,40.1,232.7,38.4,229.2z"/>
	<path class="st4" d="M297.7,211.1c-0.2-2.6-0.7-5.1-1.6-7.5c-0.7-1.8-1.7-3.7-3.3-4.9c-2.2-1.7-5.2-1.9-8-1.9
		c-6.8,0-13.7,0.5-20.2,2.7s-12.5,6.1-16.2,11.8c-2.6,4-4,8.8-4.8,13.6c-1.7,11.3,1.1,24.2,10.5,30.6c4.1,2.8,9.1,4,13.9,5.2
		c6.3,1.5,13.1,2.8,19,0.1c-7.7-0.6-15.6-2.2-22.3-6c-6.7-3.9-12.3-10.3-13.6-18c-1.2-7.1,1.4-14.6,6.2-20
		c4.8-5.4,11.6-8.8,18.7-10.3c2.7-0.6,5.6-0.9,8.3-0.5c4.6,0.7,8.6,3.2,12.5,5.6c0.8-0.1,0.7-1.6-0.1-1.6c-0.8,0-0.9,1.5-0.1,1.6
		L297.7,211.1z"/>
	<path class="st4" d="M186.2,241.4c1-7.2,2.9-14.3,5.7-21c2.9-6.7,6.7-13,11-18.9c4.4-5.8,9.6-11.1,15.2-15.8
		c5.7-4.7,11.8-8.7,18.3-12.1c6.6-3.3,13.5-5.9,20.6-7.8c3.6-0.7,7.2-1.6,10.8-2c3.7-0.4,7.4-0.7,11.1-0.6c7.4,0,14.8,1.1,21.9,3.2
		c7.1,2.2,13.9,5.5,19.7,10.3c2.9,2.3,5.6,5.1,7.8,7.9c2.4,3,4.2,6.2,5.8,9.6c3.1,6.8,4.7,14.3,4.6,21.8c0,3.7-0.5,7.5-1.4,11.1
		c-0.2,0.9-0.5,1.8-0.8,2.7l-0.4,1.3c-0.2,0.6-0.4,0.9-0.5,1.4c-0.8,1.7-1.3,3.3-2.2,5.1c-1.5,3.2-3.8,6.6-6.1,9.4
		c-2.5,2.8-5.3,5.3-8.4,7.4c-6.2,4.2-13.3,6.9-20.7,8.1c-3.7,0.6-7.4,0.8-11.1,0.6c-3.7-0.1-7.4-0.9-10.9-1.6
		c-7.3-1.6-14.4-4.8-19.6-10.3c-2.6-2.8-4.5-6.1-5.6-9.7s-1.3-7.4-0.9-11.1v-0.1c0.2-1.1,0.5-2.2,0.8-3.3c0.2-0.5,0.4-1.1,0.6-1.6
		c0.1-0.3,0.2-0.5,0.3-0.8l0.4-0.7l0.7-1.5l0.4-0.7c0.1-0.2,0.1-0.2,0.2-0.4l0.2-0.3l1.8-2.7l0,0c0.5-0.8,1-1.6,1.6-2.4
		c0.6-0.7,1.2-1.5,1.9-2.1c0.7-0.6,1.4-1.3,2.1-1.9c0.8-0.5,1.5-1.2,2.3-1.6c3.2-2,6.8-3.4,10.5-4.1c1.9-0.4,3.7-0.5,5.6-0.5
		s3.8,0.2,5.6,0.6c0.9,0.3,1.8,0.5,2.7,0.8c0.9,0.4,1.7,0.7,2.6,1.1c0.8,0.5,1.6,0.9,2.4,1.4l2.2,1.7l-2.3-1.6
		c-0.8-0.5-1.6-0.9-2.5-1.3c-0.8-0.4-1.7-0.7-2.6-1s-1.8-0.4-2.7-0.7c-1.8-0.3-3.7-0.5-5.5-0.4s-3.7,0.3-5.5,0.7
		c-3.6,0.8-7,2.2-10.1,4.3c-0.8,0.5-1.5,1.1-2.2,1.6c-0.7,0.6-1.3,1.2-2,1.9c-0.6,0.6-1.2,1.4-1.8,2.1c-0.5,0.7-1,1.5-1.5,2.3l0,0
		l-1.7,2.8l-0.2,0.3c0,0-0.1,0.2-0.1,0.3l-0.3,0.7l-0.7,1.5l-0.3,0.7c-0.1,0.2-0.2,0.5-0.3,0.7c-0.2,0.5-0.4,1-0.5,1.5
		c-0.3,1-0.6,2.1-0.7,3.1v-0.1c-0.3,3.5,0,7.1,1,10.5c1.1,3.3,2.9,6.4,5.3,8.9c4.9,5.1,11.7,8.1,18.6,9.4c3.6,0.6,7.1,1.3,10.7,1.4
		c3.5,0.1,7.1,0,10.6-0.7c7-1.1,13.8-3.8,19.6-7.8c2.9-2,5.5-4.4,7.9-7c2.3-2.8,4.2-5.5,5.7-8.9c0.7-1.5,1.4-3.3,2.1-4.9
		c0.1-0.4,0.4-0.9,0.5-1.2l0.4-1.3c0.3-0.8,0.5-1.7,0.7-2.5c0.8-3.4,1.3-7,1.3-10.5c0.1-7.1-1.4-14.1-4.3-20.6
		c-1.4-3.2-3.2-6.3-5.4-9c-0.5-0.7-1.1-1.4-1.7-2.1c-0.6-0.7-1.1-1.3-1.8-1.9l-1.9-1.9l-2-1.7c-5.4-4.5-11.9-7.7-18.7-9.9
		c-6.8-2.1-14-3.2-21.1-3.2c-3.6-0.1-7.2,0.2-10.7,0.5c-3.6,0.4-7.1,1.2-10.6,1.8c-7,1.7-13.8,4.2-20.2,7.3
		c-6.4,3.3-12.5,7.1-18.2,11.6c-5.6,4.6-10.7,9.7-15.3,15.3c-4.4,5.7-8.3,11.9-11.4,18.4C189.6,227.2,187.4,234.2,186.2,241.4z"/>
	<path class="st4" d="M187.1,235.8c-3.8,17.5,7.3,40.1,22,50.4s33.3,13.4,51.2,13.2c28.8-0.4,57.4-9,81.7-24.4
		c16-10.1,28.6-22.6,35.2-40.5c6.5-17.7,10.2-39.2,6.7-57.9c-3.5-18.4-14.4-37.2-27.4-57.6c7.4,5.9,18.5,22.5,23.4,30.4
		c5.7,9.2,8.9,19.2,11.3,29.6c7.6,32.2,3.4,68.3-18.4,94c-21.7,25.6-52.6,43.6-85.9,47.5c-16.7,2-33.8,0.4-50.2-3.3
		c-13.4-3-26.9-7.7-37.2-16.9c-16.4-14.6-18.5-39-13.6-58.9C187.1,237.3,186.9,237.9,187.1,235.8L187.1,235.8z"/>
	<path class="st6" d="M178.9,216.9c-1.7-10.8-8.9-20.5-18.6-25.4c-13.3-6.7-29.6-4.2-43.5-9.6c-2.5-1-4.9-2.2-7.5-2.6
		c-2.6-0.4-5.6,0-7.4,2c-2.2,2.3-2,6.2-0.4,8.9s4.4,4.6,7.2,6.1c4.1,2.2,8.6,3.9,13.1,4.9c4.9,1.1,10,1.5,14.8,2.7
		c12.2,3.1,22.5,11.4,34.5,15.1c2.2,0.7,4.7,1.2,6.8,0.1c2.1-1.1,2.9-4.4,1-5.7L178.9,216.9z"/>
	<path class="st7" d="M341.9,296.5c-16-4-31.6-10.9-47.6-15.1c-10.7-2.8-21.7-4.4-31.7-9.8c-6.9-3.7-13.2-9-19.4-14.2
		c-9.3-7.8-18.7-15.3-28.4-22.2c-1.1-0.8-2.2-1.5-3.6-2.2c-1-0.2-1.9-0.5-2.8-0.8c-0.9-0.3-1.8-0.7-2.7-1.1
		c-5.6-5.9-15.9-7.7-21.5-12.9c-0.8-0.8-1.5-1.6-2.3-2.5c-1.7-4.6-4.6-10.4-9.6-11.2c-1-0.7-2.3-1.3-3.6-2
		c-23.3-11.6-49.7-18.3-64.6-41.8c-1.5-3.7-2.6-7.8-3.2-12.1s-0.7-9-0.2-14.1c0.1-4.2,0.1-8.3-0.1-12.4c-0.2-3.8-0.6-7.5-1.1-11.2
		C97,93.7,90.6,77.8,78.4,67.6c-3.1-2.5-6.5-4.7-10.3-6.5C34.9,48.3,0,77.4,0,106.4c0,14.5,18.2,21,24.4,33.8c1.3,2.6,2,5.4,2.1,8.5
		c1.4,3.6,2.3,7.2,2.9,10.7c0.6,3.5,0.8,7.1,0.9,10.6c0.5,3.4,0.9,6.7,1.3,10.1c0.4,3.4,0.7,6.7,0.9,10c0.2,4.2,0.3,8.6,0.4,13.1
		c0.1,4.6,0.1,9.3,0.1,14.1c-0.2,7.1-0.6,14.5-0.8,21.8c-0.1,3.7-0.1,7.4,0,11c-6.1,45,37.5,68.3,78.2,60.4
		c4.5,0.5,9.1,0.8,13.6,1.2c59.1,4.9,117.9,11.4,179.7,24.1c26.5,5.7,63.4,0.3,60.3-37.6C357.2,295.8,348.2,298.1,341.9,296.5z"/>
	<path class="st0" d="M303.7,335.9c-66.5-13.7-129.6-20.2-193.3-25.2c-4.2-0.3-8.5-0.7-12.8-1c-6.7-0.6-13.1-2.1-19.2-4.1
		c-0.9-0.3-1.7-0.6-2.6-0.9c-11.8-3.6-23.5-9.4-27-21.8c-0.6-1.2-1.2-2.4-1.7-3.6c-5.1-10.9-9.5-21.7-15.1-21.7
		c-17.4,2.9-2.9,32,9.5,44.4c1,0.9,1.9,1.8,2.8,2.7c2.8,2.6,5.4,4.8,7.5,6.8c1,0.7,2.1,1.5,3.2,2.2c1.1,0.7,2.2,1.5,3.2,2.2
		c0.9,0.5,1.8,1,2.8,1.4c2.8,1.4,5.6,2.6,8.5,3.6c7.7,2.8,15.8,4.5,23.8,4.8c2.7-0.1,5.3-0.1,8-0.2c2.6-0.1,5.3-0.2,7.9-0.3
		c48.7-1.5,97.6,2.3,145.8,11.3c23.3,4.4,46.7,10,70.2,7.3c10.6-1.2,21.3-4.3,30.2-11.5c6-4.9,21.6-22.4,13.3-30.8
		c-1.4-1.4-3-2.3-4.7-2.9C367.1,336.2,330.3,341.6,303.7,335.9z"/>
	<path class="st0" d="M188.9,244.2c-0.8,1.3,0.3,3.5,2.4,4.9c2.2,1.4,4.6,1.5,5.4,0.3s-0.3-3.5-2.4-4.9
		C192.2,243,189.7,242.9,188.9,244.2z"/>
	<path class="st0" d="M216.9,260.5c-0.8,1.3,0.3,3.5,2.4,4.9c2.2,1.4,4.6,1.5,5.4,0.3c0.8-1.3-0.3-3.5-2.4-4.9
		C220.2,259.3,217.7,259.2,216.9,260.5z"/>
	<path class="st0" d="M229.1,260.5c-0.8,1.3,0.3,3.5,2.4,4.9c2.2,1.4,4.6,1.5,5.4,0.3c0.8-1.3-0.3-3.5-2.4-4.9
		C232.4,259.3,229.9,259.2,229.1,260.5z"/>
	<path class="st0" d="M204.8,246.5c-1.2,1.9,0.4,5,3.5,7.1s6.7,2.2,7.9,0.4c1.2-1.9-0.4-5-3.5-7.1
		C209.5,244.8,206,244.6,204.8,246.5z"/>
	<path class="st0" d="M57.7,134.3c-1.5,0.1-2.6,2.2-2.5,4.8s1.5,4.6,3,4.5s2.6-2.2,2.5-4.8C60.6,136.3,59.2,134.3,57.7,134.3z"/>
	<path class="st0" d="M61.1,166.6c-1.5,0.1-2.6,2.2-2.5,4.8s1.5,4.6,3,4.5c1.5-0.1,2.6-2.2,2.5-4.8
		C63.9,168.5,62.6,166.5,61.1,166.6z"/>
	<path class="st0" d="M68.3,176.4c-1.5,0.1-2.6,2.2-2.5,4.8s1.5,4.6,3,4.5s2.6-2.2,2.5-4.8C71.1,178.4,69.8,176.3,68.3,176.4z"/>
	<path class="st0" d="M65.3,148.5c-2.2,0.1-3.8,3.3-3.6,7c0.2,3.8,2.1,6.7,4.4,6.6c2.2-0.1,3.8-3.3,3.6-7
		C69.4,151.4,67.5,148.4,65.3,148.5z"/>
	<path class="st0" d="M330.8,329.1c0,1.5,2,2.8,4.6,2.9s4.7-1.1,4.8-2.6c0-1.5-2-2.8-4.6-2.9C333,326.4,330.8,327.6,330.8,329.1z"/>
	<path class="st0" d="M341.2,322.7c0,1.5,2,2.8,4.6,2.9s4.7-1.1,4.8-2.6c0-1.5-2-2.8-4.6-2.9C343.3,320,341.2,321.2,341.2,322.7z"/>
	<path class="st0" d="M313.2,323.6c-0.1,2.2,2.9,4.1,6.7,4.2c3.8,0.1,6.8-1.6,6.9-3.8c0.1-2.2-2.9-4.1-6.7-4.2
		C316.3,319.6,313.2,321.4,313.2,323.6z"/>
	<path class="st0" d="M363.4,298.5c0.3-1,1.3-1.6,2.3-1.8c1.9-0.3,3.7,1,4.6,2.7s1,3.6,1,5.5c-0.1,3-0.7,6.1-2.6,8.4L363.4,298.5z"
		/>
	<path class="st8" d="M112,161.9c-4.5-3.1-1.6-9-2.3-12.5c0-1.2,0.1-2.4,0.2-3.6c1.3-9.8,7.4-19.5,0.4-21.8
		c-10.2-2-10.4,5.9-10.7,14.8c-0.1,1.3-0.1,2.6-0.2,3.9c-0.7,10.3-3.6,22,4.6,30.8c0.5,1,1,2,1.6,2.9c1.6,2.9,3.5,5.5,5.6,7.8
		c2.3,0.9,4.7,1.5,7.1,1.9c7.2,1.3,14.7,1.2,21.9,3.2c11.7,3.2,21.9,11.5,30.2,21.5c3,3.6,6,7.6,10,9.4c4.1,1.8,9.6,0.5,11-4.2
		c0.7-2.1,0.4-4.6-0.3-6.7c-0.4-1.5-1.1-2.9-1.9-4.1c-1-1.4-2.4-2.5-3.7-3.6c-9.2-7.5-18.6-15-29.3-19.2c-5.9-2.3-12.1-3.6-18.3-4.8
		c-3.1-0.6-6.2-1.2-9.3-1.9c-3.8-2.3-9.6-2.3-13.6-6.3c-0.8-0.9-1.3-2.1-2.5-5.3C112.4,163.3,112.2,162.6,112,161.9z"/>
	<path class="st9" d="M5.6,104.5c2.7,5.5,6.9,11,13,11.8c3.2,0.4,6.4-0.5,9.5-1.6c8.8-3.1,17.3-7.3,25.2-12.3
		c-1.6-1.3-4-1.3-6.1-1.1c-13.8,1.3-27.7,5.7-41.3,2.9L5.6,104.5z"/>
	<path class="st8" d="M160.9,106.2c-4,2.7-8.2,7.1-6.6,11.6c0.6,1.8,2.2,3.2,3.9,4.2c5.5,3,12.3,1.4,18.3-0.2
		c20.1-5.5,40-11.7,59.9-17.8c5.4-1.7,17.6-4,15.4-12.4c-1.4-5.4-9.7-7.4-14.4-8c-8.7-1.1-17.6,0.7-26.2,2.1
		C193.3,88.8,175.9,95.8,160.9,106.2z"/>
</g>
</svg>
