<?xml version="1.0" encoding="utf-8"?>
<!-- Generator: Adobe Illustrator 22.0.0, SVG Export Plug-In . SVG Version: 6.00 Build 0)  -->
<svg version="1.1" id="Layer_1" xmlns="http://www.w3.org/2000/svg" xmlns:xlink="http://www.w3.org/1999/xlink" x="0px" y="0px"
	 viewBox="0 0 392.4 345.7" style="enable-background:new 0 0 392.4 345.7;" xml:space="preserve">
<style type="text/css">
	.st0{fill:#FFD256;}
	.st1{fill:#FFFFFF;}
	.st2{fill:#010101;}
	.st3{fill:#F69E23;}
	.st4{fill:#DE4F27;}
	.st5{fill:#F26F24;}
	.st6{fill:#F68B24;}
</style>
<g>
	<path class="st0" d="M28,24.9c6,31.4,12.6,71.4,3,102.6c-6.2,20.2,30.2,23.7,26.2,0.5c-3.1-18.3-3.1-36.9-6.8-55.2
		c-3.6-17.5-9.5-33.8-16.9-50C32,19.7,27.4,21.8,28,24.9L28,24.9z"/>
	<path class="st0" d="M112.6,35.3c3.6,16.5-1.9,33.4-6.8,49c-5.1,16.1-10.8,34.3-21.6,47.6c-17.3,21.2,20.5,35.4,24.1,14.7
		c3.6-21,10.9-41.2,13.9-62.4c2.5-17.2,5.1-35.4-4.8-50.7C115.8,31.2,112,32.4,112.6,35.3L112.6,35.3z"/>
	<path class="st0" d="M147.1,57.9c11.1-13.3,8.4-36.5-7.5-45c-14.5-7.7-35.1,2.9-42.7,16.2c-2,3.6-3.5,7.6-3.4,11.7
		c0.1,8.8,7.3,16.1,15.4,19.8c9.7,4.4,22,8,32,2.5C143.2,61.9,145.3,60.1,147.1,57.9z"/>
	<path class="st0" d="M55.1,48.1c19-22.5,1.4-55.6-28-46.6C10.2,6.6-2.7,25.3,7.4,42.2c7.2,12,29.1,17.8,41.5,11.1
		C51.2,52,53.3,50.2,55.1,48.1z"/>
	<path class="st1" d="M123.2,53.9c-21.1-3.3-11.5-41.6,8.1-31.6C146.1,29.9,141.4,56.8,123.2,53.9z"/>
	<path class="st2" d="M131.8,36.3c0.9,2.4,1.4,4.9,0.8,7.4c-0.8,3.3-2.5,5.1-5.8,6.1c-3.6,1-7.3-2.3-7.8-5.7c0.1,0.4,0-4.5,0.1-1.6
		c0-0.3-0.1-0.6-0.1-0.9c0.3,0.9,0.3,1,0,0.3c-1.5-3.5,0.1-7.7,3.6-9.2C125.9,31.2,130.5,32.7,131.8,36.3L131.8,36.3z"/>
	<path class="st1" d="M28.6,41.9C7.5,38.6,17.1,0.3,36.7,10.3C51.5,17.9,46.8,44.8,28.6,41.9z"/>
	<path class="st2" d="M37.2,24.3c0.9,2.4,1.4,4.9,0.8,7.4c-0.8,3.4-2.5,5.2-5.8,6.1c-3.6,1-7.3-2.3-7.8-5.7c0.1,0.4,0-4.5,0.1-1.6
		c0-0.3-0.1-0.6-0.1-0.9c0.3,0.9,0.3,1,0,0.3c-1.5-3.5,0.1-7.7,3.6-9.2C31.3,19.2,35.9,20.7,37.2,24.3L37.2,24.3z"/>
	<path class="st0" d="M388,331.4c-21.4,22.4-73.2,11.8-101.7,11.6c-40.1-0.2-79.8-6.3-119.9-8c-19.3-0.8-39.7-4-59.5,0.6
		C83.4,341,68,339.8,58,333.7c-2.5-1.5-4.6-3.4-6.5-5.5s-3.4-4.5-4.8-7.1c-3.6-44.5,1.2-94.2-30.7-131.6c-1.9-3.3-3.7-6.5-5.5-9.7
		C2.4,165.5-7.1,152.9,8,139.2c22.7-20.6,78-12.8,101.4,3.5c26.2,18.3,43,50,72.1,64c6.5,3.1,12.9,6,19.4,9s13.1,6,19.8,9.1
		c8.1,3.7,76.3,38.9,123.3,68.1C372.3,310.7,393,326.2,388,331.4z"/>
	<path class="st3" d="M148.3,253.8c-0.5,0.5-1,1.1-1.4,1.7c1.2-1.5,1-1.3-0.5,0.7c-0.9,1.6-1.1,3.3-1.1,5.1c0,1.3,0.1,2.6,0.1,3.9
		c0.1,3,1.5,5.7,4.2,7.3c3.1,1.8,7.8,1.5,10.2-1.3c0.8-0.9,1.6-1.9,2.2-3c1-1.9,1.2-3.3,1.5-5.5c0.2-1.9-0.6-3.9-0.9-5.8
		c-0.3-2.1-2.3-4.2-4-5.2c-2-1.2-4.5-1.5-6.8-0.9c-4.6,1.3-7.4,6.2-6.1,10.8c0.2,0.8,0.5,1.5,0.8,2.3c0.5,1.4-0.1-2.4-0.1-0.8
		c0-0.5,0.1-1,0.1-1.5c0.6-1.3,0.6-1.5,0.1-0.6c5.1,0.7,10.3,1.3,15.4,2c-0.2-1.3-0.4-2.6-0.6-3.9c-0.4-2.9-2.2-4.9-4.6-6.4
		C154.1,251,150.5,251.7,148.3,253.8L148.3,253.8z"/>
	<path class="st3" d="M177.4,268.9c0-0.1,0-0.1-0.1-0.2c-2.2,0.6-4.4,1.2-6.6,1.8c0.1,0.3,0.2,0.7,0.4,1c0.5,1.6,2.2,2.7,3.9,2.2
		c1.6-0.4,2.8-2.2,2.2-3.9c0-0.1,0-0.1-0.1-0.2c-0.4-1.3-1.6-2.3-3-2.3c-1.3,0-2.8,0.9-3,2.3c0,0.1,0,0.1,0,0.2
		c2,0.6,4.1,1.1,6.1,1.7c0-0.3,0.1-0.7,0.1-1c0.3-1.8-0.4-3.7-2.4-4.2c-1.6-0.4-3.9,0.5-4.2,2.4c0,0.1,0,0.1,0,0.2
		c-0.3,2.2,0.9,4.4,3.3,4.4C176.3,273.2,178.2,271,177.4,268.9L177.4,268.9z"/>
	<path class="st3" d="M156.8,278.5c-0.1,0.1-0.3,0.2-0.4,0.2c-2.1,1.2-3.4,3.5-3.4,5.9c0,3.2,2.1,5.6,5,6.6c0.2,0.1,0.3,0.1,0.5,0.2
		c4.4,1.5,8.9-2.4,8.9-6.8C167.4,279.1,161.4,275.9,156.8,278.5L156.8,278.5z"/>
	<path class="st3" d="M15.9,165.5c2.1,7.1,7.5,9,14.5,9.7c6.6,0.7,13.7-2.4,15.9-9c2-5.9-5-2.5-6.8-2.9c-3.3-0.7-7.1,1-10.5,1.1
		c-2.9,0.1-7.5-0.9-10.2-1.9C17.2,161.9,15.5,163.8,15.9,165.5L15.9,165.5z"/>
	<path class="st4" d="M360.6,126.5c20.7,42.7-65.6,25.5-62.2-1.7C301.7,98.2,352.5,109.7,360.6,126.5z"/>
	<path class="st5" d="M318,190.7c-19.4-3.7-83.2-30.6-81.1-56.9c1.4-17.6,24.3-16.4,37.7-15.2c26,2.3,79.7,15.6,91.9,42.5
		C383.5,198.7,339.2,194.7,318,190.7z"/>
	<path class="st6" d="M295.2,149.6c-47.6-24-101.8-40.2-139.9,9.8c-25.8,33.9,3.1,58.4,31.3,79c34.4,25.1,182.9,86.7,203.4,18.1
		c10-33.4-13-68.2-42-81.7C330,166.4,312.7,158.4,295.2,149.6z"/>
</g>
</svg>
