<?xml version="1.0" encoding="utf-8"?>
<!-- Generator: Adobe Illustrator 22.0.0, SVG Export Plug-In . SVG Version: 6.00 Build 0)  -->
<svg version="1.1" id="Layer_1" xmlns="http://www.w3.org/2000/svg" xmlns:xlink="http://www.w3.org/1999/xlink" x="0px" y="0px"
	 viewBox="0 0 392.8 330.4" style="enable-background:new 0 0 392.8 330.4;" xml:space="preserve">
<style type="text/css">
	.st0{fill:#F8ACAD;}
	.st1{fill:#FFFFFF;}
	.st2{fill:#010101;}
	.st3{fill:#EA3D56;}
	.st4{fill:#F08E94;}
	.st5{fill:#E83C64;}
	.st6{fill:#F05674;}
	.st7{fill:#EF6081;}
	.st8{fill:#F1738B;}
	.st9{fill:#F48696;}
</style>
<g>
	<g>
		<g>
			<path class="st0" d="M232.1,319.9c-21.3,0.9-41.8,9.3-63.4,10.3c-24.7,1.1-49.6-2.3-73-10.1c-6-2-12.2-4.4-16.8-8.8
				c-6.1-5.7-8.8-14.1-10.2-22.4c-0.7-3.8-1.1-7.7-1.4-11.6c-1.6-21.7,0.8-44.3-9.6-63.2c-8-14.6-22.4-24.3-34.2-35.9
				C6.9,161.8-5.6,137.3,2.6,115.5c0.8-2.2,1.8-4.2,2.9-6.2c2.6-4.5,6-8.5,9.9-12.2c6-5.7,13.2-10.4,20.4-14.4
				c4.4-2.5,9-4.9,13.8-6.1c2.6-0.6,5.2-1,7.8-0.8c2.7,0.2,5.3,0.8,7.7,1.8c9.6,4.1,16.8,14.3,22.4,23.8
				c5.5,9.2,10.8,18.6,13.5,28.9c5.4,20.6-0.4,43,5.8,63.3c1.9,6.1,4.9,12,9.8,16.2c5.9,5.1,13.8,7,21.5,8.4
				c30.3,5.4,63.5,5.3,88.2,23.6c12.9,9.6,22.4,23.6,34.4,33.9c4.7,4.1,9.8,7.6,15.5,10c6.6,2.8,26.6,6.7,27.5,15.8
				C306.5,326.4,243.3,319.5,232.1,319.9z"/>
			<path class="st0" d="M33.7,19.6c1.4,26.2,2.4,59.4-8.8,83.7c-7.3,15.7,21.9,22.5,21.2,3.3c-0.5-15.2,1.5-30.3,0.5-45.6
				c-1-14.6-4-28.5-8.3-42.5C37.5,15.8,33.6,17,33.7,19.6L33.7,19.6z"/>
			<path class="st0" d="M101.4,37.3c1.1,13.8-5.2,26.9-10.9,39.1c-5.9,12.5-12.5,26.7-22.8,36.3c-16.4,15.3,12.8,31,17.9,14.5
				c5.3-16.7,13.3-32.2,18.1-49.1c3.9-13.7,8-28.2,1.6-41.7C104.4,34.2,101.2,34.8,101.4,37.3L101.4,37.3z"/>
			<path class="st0" d="M126.9,59.4c10.5-9.6,10.8-28.7-1.2-37.4c-10.9-7.9-28.8-1.5-36.4,8.5c-2,2.7-3.7,5.8-4.1,9.1
				c-0.9,7.2,4.2,13.9,10.3,17.8c7.4,4.7,17,8.9,25.7,5.6C123.3,62.2,125.2,61,126.9,59.4z"/>
			<path class="st0" d="M53.2,41.3c17.9-16.2,7.2-45-17.6-40.9c-14.4,2.3-26.9,16.2-20.5,31C19.6,42,36.8,49,47.6,44.9
				C49.6,44.1,51.5,42.9,53.2,41.3z"/>
			<path class="st1" d="M107.9,53.5c-16.8-5-4.8-35,10-24.7C129.1,36.5,122.4,57.8,107.9,53.5z"/>
			<path class="st2" d="M116.8,40.1c0.4,2,0.6,4.1-0.1,6.1c-1,2.6-2.6,3.9-5.3,4.3c-3.1,0.4-5.7-2.7-5.7-5.5c0,0.3,0.5-3.7,0.3-1.3
				c0-0.2,0-0.5,0-0.7c0.1,0.8,0.1,0.9,0,0.2c-0.9-3,0.9-6.2,3.9-7.1C112.6,35.4,116.1,37.1,116.8,40.1L116.8,40.1z"/>
			<path class="st1" d="M32.4,33.4c-16.8-5-4.8-35,10-24.7C53.6,16.4,46.8,37.7,32.4,33.4z"/>
			<path class="st2" d="M41.3,20c0.4,2,0.6,4.1-0.1,6.1c-1,2.6-2.6,3.9-5.3,4.3c-3.1,0.4-5.7-2.7-5.7-5.5c0,0.3,0.5-3.7,0.3-1.3
				c0-0.2,0-0.5,0-0.7c0.1,0.8,0.1,0.9,0,0.2c-0.9-3,0.9-6.2,3.9-7.1C37,15.3,40.6,17,41.3,20L41.3,20z"/>
		</g>
		<path class="st3" d="M22.6,135c6.1,3.3,13.5,3.4,20.3,3.6c3.7,0.1,3.8-5.7,0.1-5.8c-5.7-0.1-12.2,0.1-17.4-2.7
			C22.3,128.3,19.3,133.2,22.6,135L22.6,135z"/>
		<path class="st4" d="M117.2,235.5c-2,0.9-3.5,2.4-4.3,4.4c-0.7,1.8,0,3.9,1.2,5.3c1.4,1.5,3.6,1.8,5.5,1.3
			c2.4-0.7,4.2-2.7,5.4-4.7c0.7-1.1,0.4-2.6-0.5-3.5l-0.1-0.1c0.1,0.1,0.1,0.2,0.2,0.2c-0.2-0.4-0.2-0.3,0,0.4
			c-0.1-1.3-0.8-2.5-2.1-2.8c-1.9-0.4-3.5-0.4-5.2,0.4c-0.9,0.4-1.5,1.2-2.2,1.9c-2.6,2.7,1.5,6.8,4.1,4.1c0.2-0.2,0.3-0.4,0.5-0.6
			s0.9-0.7,0.2-0.2c0.1-0.1,0.2-0.1,0.3-0.2c-0.8,0.4,0.4,0-0.4,0.1c0.5-0.1,0.8,0,1.1,0.1c-0.7-0.9-1.4-1.9-2.1-2.8
			c0.2,1.4,0.6,2.6,1.6,3.6c-0.2-1.2-0.3-2.3-0.5-3.5c-0.4,0.7-0.6,0.9-1.1,1.4c-0.1,0.1-0.7,0.6-0.2,0.2c-0.2,0.2-0.5,0.3-0.8,0.5
			c0.7-0.3,0.1-0.1,0,0c-0.5,0.1,0.7,0-0.1,0c-0.5,0,0.7,0.2,0,0c0.9,0.3-0.2-0.3,0.5,0.3c-0.2-0.1-0.4-0.5,0.1,0.2
			c-0.4-0.6,0.1,0.5,0,0.1s0,0.8,0,0c0-0.5-0.2,0.7,0,0c-0.2,0.7-0.1,0.3,0,0.1c0.2-0.3,0.1-0.2-0.1,0.1c0.1-0.1,0.2-0.2,0.3-0.3
			c0.2-0.2,0.2-0.2,0,0c0.1-0.1,0.3-0.2,0.4-0.3c0.3-0.2,0.7-0.4,1-0.5c1.4-0.7,1.8-2.7,1-4C120.3,235,118.6,234.8,117.2,235.5
			L117.2,235.5z"/>
		<path class="st4" d="M126.4,248.2c-1.7,0.2-2.8,1.1-3.4,2.7c-0.3,0.8-0.3,1.7-0.3,2.5c0,1.6,1.3,2.9,2.9,2.9
			c1.6,0,2.9-1.3,2.9-2.9c0-0.3,0-0.7,0-1c0-0.5-0.2,0.8,0,0.1c0.1-0.3,0-0.2-0.2,0.4c0,0,0-0.1,0.1-0.1c-0.5,0.7-1.2,1.1-2,1.2
			c1.6-0.1,2.9-1.2,2.9-2.9C129.3,249.6,127.9,248.1,126.4,248.2L126.4,248.2z"/>
		<g>
			<g>
				<path class="st4" d="M131.8,249c3.2,0,3.2-5,0-5S128.6,249,131.8,249L131.8,249z"/>
			</g>
		</g>
		<path class="st4" d="M251.9,305.2c0.5,1.6,1.2,3.1,2.4,4.3c0.9,1,2.3,1.8,3.7,1.7c1.9-0.1,3.6-1.6,3.4-3.7
			c-0.2-1.8-1.1-3.1-2.3-4.4c-1.1-1.1-3-1.1-4.1,0s-1.1,3,0,4.1c0.2,0.2,0.3,0.3,0.5,0.5c0.5,0.6-0.3-0.5,0.1,0.1
			c0.1,0.2,0.2,0.3,0.3,0.5c0.2,0.3-0.3-0.8-0.1-0.2c0.2,0.5,0-0.9-0.1-0.4c0.1-0.7,0.1-0.9,0.1-0.6c-0.1,0.3,0.4-0.8,0.2-0.5
			c0.4-0.6,0.8-0.9,1.4-1.1c-0.3,0.1,1,0,0.5-0.1c1.1,0.1,0.7,0.1,0.4,0c1,0.3,0.5,0.2,0.3,0.1c-0.1,0-0.1-0.1-0.1-0.1
			c-0.4-0.2,0.6,0.5,0.3,0.2c-0.1-0.1-0.3-0.2-0.4-0.4c-0.5-0.5,0.4,0.6,0,0c-0.1-0.2-0.2-0.4-0.4-0.6c0-0.1-0.1-0.2-0.1-0.3
			c-0.3-0.5,0.3,0.7,0,0.1c-0.1-0.3-0.2-0.5-0.3-0.8c-0.4-1.5-2-2.4-3.6-2C252.4,302.1,251.4,303.7,251.9,305.2L251.9,305.2z"/>
		<path class="st4" d="M265.5,312.8c0.3,0,0.5,0,0.8,0c1.6,0,2.9-1.3,2.9-2.9s-1.3-2.9-2.9-2.9c-0.3,0-0.5,0-0.8,0
			c-1.6,0-2.9,1.3-2.9,2.9C262.6,311.4,263.9,312.8,265.5,312.8L265.5,312.8z"/>
		<g>
			<g>
				<path class="st4" d="M266.3,303.9c3.2,0,3.2-5,0-5C263.1,298.9,263.1,303.9,266.3,303.9L266.3,303.9z"/>
			</g>
		</g>
		<path class="st4" d="M232.1,319.9c-21.3,0.9-41.8,9.3-63.4,10.3c-24.7,1.1-49.6-2.3-73-10.1c-6-2-12.2-4.4-16.8-8.8
			c-6.1-5.7-8.8-14.1-10.2-22.4c-0.7-3.8-1.1-7.7-1.4-11.6c1.4,5.8,3.9,11.5,7.9,17.1c10.1,14,22.7,12.9,38.7,14.7
			c11.5,1.3,23,3.7,34.6,4.6c8.7,0.7,17.3,4.2,25.7,4.7c12.7,0.7,26.8-2.9,39.2-4.8c12.6-1.9,24.2-0.6,36.5,2.5
			c10.2,2.5,29.2,2.6,32.5-9.3c3.1-11.2-13.2-17.6-21.6-23.2H260c-0.2-3.1,0.1-5.8,0.8-7.9c4.7,4.1,9.8,7.6,15.5,10
			c6.6,2.8,26.6,6.7,27.5,15.8C306.5,326.4,243.3,319.5,232.1,319.9z"/>
	</g>
	<g>
		<path class="st5" d="M378.3,209.6c-11.3,6.7-6.9,30.5,8.6,18.9c3.7-2.8,6.9-7.7,5.6-12.7C391.1,210.8,383.1,206.7,378.3,209.6z"/>
		<path class="st6" d="M375.7,202.7c-5.8-9.8-21.3-5.3-26,2.3c-6.8,10.9-7.4,47.9,13.5,37.4C374,237.1,382,213.2,375.7,202.7z"/>
		<path class="st7" d="M351.6,189.4c6.7,5.4,5.2,12.3,4.9,19.6c-0.7,15.5,0.8,33.5-13.2,44.2c-12.2,9.3-30.3,12.3-33.7-6.1
			c-3-16.3,5.2-36.4,11.8-50.2C327.1,185,340.9,180.8,351.6,189.4z"/>
		<path class="st8" d="M241,220.9c8.1-26.2,27.9-60.7,60.3-57.9c9.1,0.8,20.9,4.2,26.4,12.2c8.8,13-0.1,33.7-2.8,47.8
			c-6.3,33.1-16.2,64.8-57.3,57.4c-12.9-2.3-28.6-6.8-33.1-20.8C230.7,247.9,237.6,232,241,220.9z"/>
		<path class="st9" d="M291.6,163.3c-23.5-9.6-51.3-17.2-76.7-16.4c-44,1.3-70.6,11-91.9,35.7c-31.4,36.3,0.2,62.6,30.3,81.6
			c19.2,12.1,51.9,27.3,74.6,18c17.5-7.2,16.6-27.3,20.5-43.3c4.4-18.2,10.5-36.1,20.3-52.1C271,183,286,161,291.6,163.3z"/>
	</g>
</g>
</svg>
