<?xml version="1.0" encoding="utf-8"?>
<!-- Generator: Adobe Illustrator 22.0.0, SVG Export Plug-In . SVG Version: 6.00 Build 0)  -->
<svg version="1.1" id="Layer_1" xmlns="http://www.w3.org/2000/svg" xmlns:xlink="http://www.w3.org/1999/xlink" x="0px" y="0px"
	 viewBox="0 0 393.9 353" style="enable-background:new 0 0 393.9 353;" xml:space="preserve">
<style type="text/css">
	.st0{fill:#F8ACAD;}
	.st1{fill:#FFFFFF;}
	.st2{fill:#010101;}
	.st3{fill:#EA3D56;}
	.st4{fill:#F08E94;}
	.st5{fill:#EB7625;}
	.st6{fill:#E4AB28;}
	.st7{opacity:0.51;fill:#EB7625;enable-background:new    ;}
	.st8{opacity:0.37;fill:#FAB586;enable-background:new    ;}
</style>
<g>
	<g>
		<path class="st0" d="M304.1,341.6c-22.9,0.9-45,10-68.2,11.1c-26.6,1.2-53.4-2.5-78.6-10.9c-6.5-2.2-13.1-4.8-18.1-9.5
			c-6.5-6.2-9.5-15.2-11-24.1c-0.7-4.1-1.2-8.3-1.5-12.5c-1.8-23.4,0.8-47.7-10.4-68.1c-8.6-15.7-24.1-26.1-36.8-38.7
			c-17.9-17.6-31.4-44-22.5-67.6c0.9-2.3,1.9-4.6,3.2-6.7c2.8-4.9,6.5-9.2,10.6-13.1c6.5-6.1,14.2-11.2,22-15.5
			c4.7-2.7,9.7-5.3,14.9-6.6c2.7-0.7,5.6-1,8.4-0.9c2.9,0.2,5.7,0.9,8.3,2c10.4,4.4,18.1,15.4,24.1,25.6c5.9,9.9,11.7,20,14.6,31.1
			c5.8,22.2-0.4,46.3,6.3,68.2c2,6.6,5.3,13,10.5,17.4c6.4,5.5,14.9,7.6,23.1,9c32.6,5.9,68.4,5.7,95,25.4
			c13.9,10.3,24.2,25.4,37.1,36.5c5.1,4.4,10.5,8.2,16.7,10.8c7.1,3,28.7,7.2,29.7,17C384.1,348.5,316.1,341.1,304.1,341.6z"/>
		<path class="st0" d="M19.2,60.3c18.9,20.9,42.3,48,49.4,76c4.6,18.1,33.6,4,20-11.6c-10.8-12.4-19.3-26.4-30.5-38.5
			C47.3,74.6,35.4,65,22.3,56.2C19.8,54.5,17.3,58.2,19.2,60.3L19.2,60.3z"/>
		<path class="st0" d="M87.8,29.2c10.3,10.8,13.9,26,17.4,40.1c3.6,14.5,7.6,30.8,5.5,45.8c-3.3,23.9,31.7,17.3,24.9,0
			c-6.9-17.5-10.7-36-18.2-53.4c-6.1-14.1-12.4-29.1-26.9-36C88.2,24.7,86,27.3,87.8,29.2L87.8,29.2z"/>
		<path class="st0" d="M124.1,30.5C126.4,15.4,113.7-0.9,97.7,0C83.2,0.8,72.6,18.3,73,31.8c0.1,3.6,0.8,7.3,2.8,10.4
			c4.1,6.6,12.9,8.8,20.7,7.9c9.4-1.1,20.2-4.1,25.3-12.8C123,35.2,123.8,32.9,124.1,30.5z"/>
		<path class="st0" d="M50.3,65.3c4-25.6-24.5-42.5-42.5-22.3C-2.6,54.7-3.7,74.7,11.6,82.8c11,5.8,30.1,0.1,36.3-10.7
			C49.2,70,49.9,67.7,50.3,65.3z"/>
		<path class="st1" d="M104.2,38.4c-17.5,7.2-27.7-26-8.4-27.5C110.5,9.8,119.3,32.2,104.2,38.4z"/>
		<path class="st2" d="M102.6,21.2c1.7,1.4,3.3,3.1,4,5.2c1,2.9,0.5,5-1.6,7.2c-2.3,2.4-6.6,1.6-8.5-0.7c0.2,0.3-2.1-3.4-0.7-1.3
			c-0.2-0.2-0.3-0.4-0.5-0.6c0.6,0.6,0.7,0.6,0.1,0.2c-2.7-1.9-3.4-5.8-1.5-8.6C95.9,20.1,100,19.1,102.6,21.2L102.6,21.2z"/>
		<path class="st1" d="M27.5,72.8C10,80-0.2,46.8,19.1,45.3C33.7,44.2,42.5,66.6,27.5,72.8z"/>
		<path class="st2" d="M25.8,55.6c1.7,1.4,3.3,3.1,4,5.2c1,2.9,0.5,5-1.6,7.2c-2.3,2.4-6.6,1.6-8.5-0.7c0.2,0.3-2.1-3.4-0.7-1.3
			c-0.2-0.2-0.3-0.4-0.5-0.6c0.6,0.6,0.7,0.6,0.1,0.2c-2.7-1.9-3.4-5.8-1.5-8.6C19.1,54.5,23.2,53.5,25.8,55.6L25.8,55.6z"/>
	</g>
	<path class="st3" d="M89.4,169c7.5-0.3,14.3-4.3,20.7-7.9c3.5-2,0.4-7.4-3.2-5.4c-5.3,3-11.3,6.8-17.6,7.1
		C85.4,162.9,85.4,169.2,89.4,169L89.4,169z"/>
	<path class="st4" d="M180.3,250.6c-2.2,1-3.8,2.6-4.6,4.8c-0.8,1.9,0,4.2,1.3,5.7c1.5,1.6,3.9,1.9,5.9,1.4c2.6-0.7,4.5-2.9,5.8-5.1
		c0.7-1.2,0.5-2.8-0.5-3.8l-0.1-0.1c0.1,0.1,0.1,0.2,0.2,0.3c-0.2-0.5-0.2-0.3,0,0.4c-0.2-1.4-0.8-2.7-2.3-3c-2-0.5-3.8-0.4-5.7,0.4
		c-1,0.4-1.7,1.3-2.4,2c-2.8,2.9,1.6,7.3,4.4,4.4c0.2-0.2,0.4-0.4,0.5-0.6c0.2-0.2,1-0.8,0.2-0.3c0.1-0.1,0.2-0.1,0.4-0.2
		c-0.8,0.4,0.4,0-0.4,0.1c0.6-0.1,0.8,0,1.2,0.1c-0.8-1-1.5-2-2.3-3c0.2,1.5,0.7,2.8,1.7,3.9c-0.2-1.3-0.3-2.5-0.5-3.8
		c-0.5,0.8-0.6,0.9-1.2,1.6c-0.1,0.1-0.8,0.7-0.2,0.2c-0.3,0.2-0.5,0.3-0.8,0.5c0.7-0.4,0.1-0.1-0.1,0c-0.6,0.2,0.8,0-0.1,0
		c-0.6,0,0.8,0.2,0,0c1,0.3-0.2-0.3,0.6,0.3c-0.2-0.2-0.5-0.6,0.1,0.2c-0.5-0.6,0.1,0.5,0,0.1c-0.2-0.5,0,0.9,0,0.1
		c0-0.5-0.2,0.8,0.1,0c-0.3,0.8-0.1,0.3,0,0.1c0.2-0.3,0.2-0.2-0.1,0.1c0.1-0.1,0.2-0.2,0.3-0.3c0.3-0.2,0.2-0.2,0,0
		c0.2-0.1,0.3-0.2,0.5-0.3c0.4-0.2,0.7-0.4,1.1-0.6c1.5-0.7,1.9-2.9,1.1-4.3C183.6,250.2,181.8,249.9,180.3,250.6L180.3,250.6z"/>
	<path class="st4" d="M190.2,264.3c-1.9,0.2-3,1.2-3.7,2.9c-0.3,0.8-0.3,1.8-0.3,2.7c0,1.7,1.4,3.1,3.1,3.1c1.7,0,3.1-1.4,3.1-3.1
		c0-0.4,0-0.7,0-1.1c0-0.5-0.2,0.9,0,0.1c0.1-0.3,0-0.2-0.2,0.4c0,0,0-0.1,0.1-0.1c-0.5,0.8-1.2,1.2-2.2,1.3
		c1.7-0.2,3.1-1.3,3.1-3.1C193.3,265.9,191.9,264.2,190.2,264.3L190.2,264.3z"/>
	<g>
		<g>
			<path class="st4" d="M196,265c3.2,0,3.2-5,0-5S192.8,265,196,265L196,265z"/>
		</g>
	</g>
	<path class="st4" d="M325.3,325.7c0.5,1.7,1.3,3.3,2.5,4.6c1,1,2.5,1.9,4,1.8c2-0.1,3.9-1.8,3.7-3.9c-0.2-1.9-1.2-3.4-2.5-4.7
		c-1.2-1.2-3.2-1.2-4.4,0c-1.2,1.2-1.2,3.2,0,4.4c0.2,0.2,0.3,0.3,0.5,0.5c0.6,0.6-0.4-0.6,0.1,0.1c0.1,0.2,0.2,0.3,0.3,0.5
		c0.2,0.4-0.3-0.9-0.1-0.2c0.2,0.6,0-0.9-0.1-0.4c0.1-0.7,0.1-0.9,0.1-0.7c-0.1,0.4,0.4-0.9,0.2-0.6c0.4-0.7,0.8-1,1.5-1.2
		c-0.3,0.1,1.1,0,0.5-0.1c1.1,0.1,0.8,0.1,0.4,0c1.1,0.4,0.6,0.3,0.3,0.1c-0.1,0-0.1-0.1-0.2-0.1c-0.4-0.3,0.7,0.6,0.3,0.2
		c-0.1-0.1-0.3-0.3-0.4-0.4c-0.5-0.5,0.4,0.6,0,0c-0.1-0.2-0.3-0.4-0.4-0.6c0-0.1-0.1-0.2-0.1-0.3c-0.3-0.6,0.3,0.7,0,0.1
		c-0.1-0.3-0.2-0.6-0.3-0.9c-0.5-1.6-2.2-2.6-3.8-2.2C325.9,322.3,324.9,324.1,325.3,325.7L325.3,325.7z"/>
	<path class="st4" d="M340,333.8c0.3,0,0.6,0,0.8,0c1.7,0,3.1-1.4,3.1-3.1s-1.4-3.1-3.1-3.1c-0.3,0-0.6,0-0.8,0
		c-1.7,0-3.1,1.4-3.1,3.1S338.3,333.8,340,333.8L340,333.8z"/>
	<g>
		<g>
			<path class="st4" d="M340.8,324.1c3.2,0,3.2-5,0-5C337.6,319.1,337.6,324.1,340.8,324.1L340.8,324.1z"/>
		</g>
	</g>
	<path class="st4" d="M304.1,341.6c-22.9,0.9-45,10-68.2,11.1c-26.6,1.2-53.4-2.5-78.6-10.9c-6.5-2.2-13.1-4.8-18.1-9.5
		c-6.5-6.2-9.5-15.2-11-24.1c-0.7-4.1-1.2-8.3-1.5-12.5c1.5,6.3,4.2,12.4,8.6,18.4c10.9,15.1,24.5,13.9,41.6,15.8
		c12.4,1.4,24.7,4,37.3,5c9.4,0.7,18.6,4.5,27.7,5.1c13.6,0.7,28.9-3.2,42.3-5.2c13.6-2.1,26-0.6,39.3,2.7c11,2.7,31.4,2.8,35-10
		c3.3-12.1-14.2-19-23.3-24.9h-0.8c-0.2-3.4,0.1-6.2,0.8-8.6c5.1,4.4,10.5,8.2,16.7,10.8c7.1,3,28.7,7.2,29.7,17
		C384.1,348.5,316.1,341.1,304.1,341.6z"/>
	<g>
		<path class="st5" d="M390.3,245.8c-2.4,7.9-6.1,15.5-10.6,22.7l0,0c-8.3,13.3-19.6,25.2-32.2,35.2c-7.2,5.7-15.4,9-24,10.6
			c-3.8,0.7-7.6,1-11.6,1.1c-11.2,0.4-22.8-1.5-33.6-3.9c-7.5-1.7-14.6-4.4-21.4-7.8h-0.1c-3.9-2-7.7-4.2-11.3-6.6
			c-1.1-0.7-2.3-1.5-3.4-2.3c-5.1-3.5-9.9-7.5-14.5-11.6c-5.5-4.9-10.6-10.1-15.4-15.4c-14.9-16.7-24.8-41.2-25.7-65.2
			c-0.2-4.7,0-9.3,0.5-13.9c1.8-15.9,8.1-30.8,19.9-42.2c8.6-8.3,19.2-14.2,30.3-18.3c7.5-2.8,15.2-4.9,23.1-6.2l0,0
			c5.7-1,11.5-1.5,17.3-1.6c17.7-0.4,35.5,3,51.7,10.4c13.9,6.3,26.4,15.5,36.7,26.7l0,0c4.1,4.5,7.8,9.3,11.2,14.3
			c5.6,8.5,10,17.8,13.1,27.5C395.5,215.4,394.9,231.2,390.3,245.8z"/>
		<path class="st6" d="M390.3,245.8c-2.4,7.9-6.1,15.5-10.6,22.7l0,0c-8.2,4.1-17.4,5.8-26.9,4.4c-8.7-1.3-7.8-14.9,0.9-13.6
			c11.3,1.7,22.8-2,30.3-10.9C385.8,246.2,388.2,245.5,390.3,245.8z"/>
		<path class="st6" d="M350.7,226.9c-4.9,7.3-16.1-0.5-11.2-7.8c11.9-17.6,25.4-39.8,26.6-61.7c4.1,4.5,7.8,9.3,11.2,14.3
			C372.9,191.2,362.1,210.1,350.7,226.9z"/>
		<path class="st6" d="M297.1,195c4.2-25.6-14.9-54.3-36.6-73.1c5.7-1,11.5-1.5,17.3-1.6c5.3,5.6,10.1,11.8,14.5,18.3
			c11.4,16.9,21.9,36.2,18.4,57.2C309.3,204.5,295.6,203.6,297.1,195z"/>
		<path class="st6" d="M259.8,205.5c-15.4-7.6-36.4-7.2-53.2-5.8c-6.7,0.5-13.3,1.5-19.9,2.8c-0.2-4.7,0-9.3,0.5-13.9
			c7-1.3,14.1-2.1,21.3-2.6c17.9-1.1,39.4-1.5,55.8,6.6C272.1,196.4,267.6,209.4,259.8,205.5z"/>
		<path class="st6" d="M242.2,294.7c-5.1-3.5-9.9-7.5-14.5-11.6c0-13.6,3.8-27,11.6-39.1c4.7-7.4,15.9,0.4,11.2,7.8
			C242.3,264.7,239.2,279.9,242.2,294.7z"/>
		<path class="st6" d="M284.5,255c-3,21.8,7.4,40.1,21.4,55.8c5.8,6.6,16.2-2.3,10.4-8.9c-11.8-13.3-20.7-27.6-18.2-46.1
			C299.3,247.2,285.7,246.3,284.5,255L284.5,255z"/>
		<path class="st7" d="M334.7,305.9c-3.5,3.2-7.2,6.1-11.2,8.5c-3.8,0.7-7.6,1-11.6,1.1c-11.2,0.4-22.8-1.5-33.6-3.9
			c-7.5-1.7-14.6-4.4-21.4-7.8c14.2,4.7,30,5.7,44.1,1.5c4.5-1.3,8.9-3.2,13-5.6c4.4-2.6,8.5-5.8,12.1-9.7
			c18.1-19.6,20.2-50.8,0.5-70.1c-20.1-19.7-65.9-24.9-76.2,8.3c-1.6,5.3-1.6,10.9-0.1,16c0.3,1.2,0.8,2.5,1.3,3.6
			c3.6,8.2,11.1,14.3,21.2,14.2c4.4,0,8.1-1.4,11.3-3.6c3.3-2.3,6-5.7,8.1-9.4c3.1-5.6,4.9-12.1,5.7-17.9c0.7-4.5,7.5-5.5,8.4-0.5
			c2.1,12.4-0.5,25.4-8.5,34.6c-2.1,2.5-4.7,4.7-7.6,6.5c-1.6,1-3.2,1.8-4.9,2.5c-13,5.3-28.7,2.1-39.1-7.5
			c-0.7-0.6-1.3-1.3-1.9-1.9c-4.1-4.4-6.9-9.2-8.6-14.3c-5.5-16.8,1.1-36,14.4-48.4c3.6-3.4,7.8-6.3,12.3-8.5
			c0.6-0.3,1.2-0.6,1.8-0.8c10.6-4.7,22.2-5.9,33.5-4.3c4.6,0.6,9.1,1.8,13.6,3.3c12.4,4.3,23.7,12,32.1,21.9c2.6,3,4.9,6.3,6.8,9.8
			c0.5,0.9,0.9,1.7,1.4,2.6c5.3,10.6,7.1,22.3,6,33.8c-0.4,4.6-1.3,9.1-2.6,13.5C351.1,285.5,344.1,297,334.7,305.9z"/>
	</g>
	<path class="st8" d="M307.7,159c6.9,1.6,13.7,3.9,20.1,7c16.7,8,32.9-8.1,16.6-21.7c-8.3-6.9-18.6-11.5-28.3-15.9
		c-7-3.2-15.5-3.5-23.2-4.2c-13.7-1.3-27.5,1.1-40.8,4.3c-9.9,2.4-22.7,5.8-25.8,16.8c-1,3.5-1.7,7.3-0.4,10.7
		c1.8,4.6,6.8,7.1,11.6,7.9c11.8,2,25.1-0.9,36.2-4.7C284.8,155.4,296.3,156.4,307.7,159z"/>
</g>
</svg>
