<?xml version="1.0" encoding="utf-8"?>
<!-- Generator: Adobe Illustrator 22.0.0, SVG Export Plug-In . SVG Version: 6.00 Build 0)  -->
<svg version="1.1" id="Layer_1" xmlns="http://www.w3.org/2000/svg" xmlns:xlink="http://www.w3.org/1999/xlink" x="0px" y="0px"
	 viewBox="0 0 394 365.7" style="enable-background:new 0 0 394 365.7;" xml:space="preserve">
<style type="text/css">
	.st0{fill:#FFD256;}
	.st1{fill:#F69E23;}
	.st2{fill:#7C56A2;}
	.st3{fill:#906DAE;}
	.st4{opacity:0.2;fill:#FFFFFF;enable-background:new    ;}
	.st5{fill:#A883BC;}
	.st6{fill:#FFFFFF;}
	.st7{fill:#010101;}
</style>
<g>
	<g>
		<path class="st0" d="M386.5,353.1c-18.8,19.7-64.3,10.4-89.5,10.2c-35.2-0.2-70.2-5.5-105.5-7.1c-17-0.7-34.9-3.5-52.4,0.5
			c-20.7,4.8-34.2,3.7-43-1.6c-2.2-1.3-4.1-2.9-5.7-4.8s-3-3.9-4.2-6.2c-3.2-39.1,1.1-82.8-27-115.7c-1.7-2.9-3.3-5.8-4.9-8.6
			c-1.6-2.8-3.2-5.6-4.8-8.3c-1.4-2.8-2.6-5.5-3.8-8.3c-6-13.6-11.2-27.3-11.8-42c0-1.9,0-3.7,0-5.5s0-3.7,0.1-5.5
			c0.3-3,0.7-6,1.2-9c1.2-6.7,3.1-13.2,6-19.5c1-2.1,2.1-4.2,3.3-6.2c20.2-27.8,64-32,89.5-10.1c1.6,1.4,3.2,2.8,4.6,4.4
			c1.5,1.6,2.9,3.3,4.2,5.1c1.5,2,2.9,4.1,4.2,6.2c1.3,2.1,2.4,4.3,3.4,6.4c1.2,2.7,2.1,5.4,2.8,8.2c2,8.4,2.4,17.2,1,25.9
			c-0.1,3-0.2,6-0.4,9c-0.4,9-0.7,18,0.8,27c0.9,2.7,1.8,5.3,2.8,7.9c1.6,2.4,3.5,4.7,5.5,6.9c1.7,1.8,3.5,3.6,5.2,5.3
			c10.6,10.2,22.3,19.3,36.4,25.8c5.7,2.7,11.3,5.3,17.1,7.9c5.7,2.6,11.5,5.3,17.4,8c7.1,3.3,67.1,34.2,108.4,59.9
			C372.7,334.9,390.9,348.5,386.5,353.1z"/>
		<path class="st1" d="M175.7,284.9c-0.5,0.4-0.9,0.9-1.2,1.5c1-1.3,0.9-1.2-0.5,0.6c-0.8,1.4-1,2.9-0.9,4.5c0,1.2,0.1,2.3,0.1,3.5
			c0.1,2.6,1.4,5,3.7,6.4c2.7,1.6,6.8,1.3,9-1.2c0.7-0.8,1.4-1.7,2-2.6c0.9-1.7,1.1-2.9,1.3-4.8c0.2-1.7-0.6-3.4-0.8-5.1
			c-0.3-1.9-2-3.7-3.5-4.6c-1.8-1-4-1.3-6-0.8c-4.1,1.1-6.5,5.4-5.4,9.5c0.2,0.7,0.5,1.3,0.7,2c0.4,1.3-0.1-2.1-0.1-0.7
			c0-0.4,0.1-0.9,0.1-1.3c0.5-1.1,0.5-1.3,0.1-0.6c4.5,0.6,9,1.2,13.5,1.8c-0.2-1.1-0.3-2.3-0.5-3.4c-0.4-2.6-1.9-4.3-4-5.7
			C180.9,282.4,177.6,283,175.7,284.9L175.7,284.9z"/>
		<path class="st1" d="M201.4,298.1V298c-1.9,0.5-3.9,1.1-5.8,1.6c0.1,0.3,0.2,0.6,0.3,0.9c0.5,1.4,1.9,2.4,3.4,1.9
			c1.4-0.4,2.4-2,1.9-3.4v-0.1c-0.4-1.2-1.4-2-2.6-2c-1.1,0-2.5,0.8-2.6,2v0.1c1.8,0.5,3.6,1,5.3,1.5c0-0.3,0.1-0.6,0.1-0.9
			c0.2-1.6-0.4-3.2-2.1-3.7c-1.4-0.4-3.5,0.5-3.7,2.1v0.1c-0.3,1.9,0.8,3.8,2.9,3.8C200.3,301.9,202,300,201.4,298.1L201.4,298.1z"
			/>
		<path class="st1" d="M183.2,306.6c-0.1,0.1-0.2,0.1-0.4,0.2c-1.8,1-3,3.1-3,5.2c0,2.8,1.8,4.9,4.4,5.8c0.1,0,0.3,0.1,0.4,0.1
			c3.8,1.3,7.8-2.1,7.8-5.9C192.5,307.1,187.3,304.3,183.2,306.6L183.2,306.6z"/>
		<g>
			<path class="st2" d="M370.4,177.8c3.7,4.1,5.2,9,4.4,14.4c-1.7,12.3,17.4,15.6,18.9,3.4c1.5-12.6-2.9-25.5-16.3-28.9
				C371.7,165.4,366.2,173.2,370.4,177.8L370.4,177.8z"/>
			<path class="st3" d="M389.9,233.2c-1.8,25.9-13,50.6-43.3,52.3c-0.2,0-0.3,0-0.5,0l0,0c-3,0.1-5.9,0-8.8-0.5
				c-13.5-2-25.1-9.8-34.9-20.1c-1.6-1.7-3.2-3.5-4.7-5.3c-9.1-11-16.3-23.9-21.4-35.4c-0.1-0.2-0.2-0.4-0.3-0.6c-0.9-2-1.8-4-2.6-6
				c-6.6-15.3-10.6-27.2-4.3-38.8l0,0c2.2-4.1,5.7-8.1,10.7-12.3c0.2-0.1,0.3-0.3,0.5-0.4c17.6-14.1,43-18.9,65-12.3
				c6,1.8,11.7,4.4,17,7.9c1.8,1.2,3.5,2.4,5.1,3.8l0,0c0.8,0.6,1.6,1.3,2.3,2c2.2,2,4.2,4.1,6,6.3c2.4,2.9,4.4,6.1,6.1,9.4
				c1.1,2.1,2,4.2,2.9,6.3c2.3,5.9,3.7,12.2,4.5,18.7c0.4,3.2,0.6,6.5,0.8,9.9C390.4,223.2,390.2,228.2,389.9,233.2z"/>
			<path class="st4" d="M367.6,165.6c-10.1-3.2-20.5-5-30.9-5c-2.2,0-4.4,0.1-6.6,0.3c-5.4,0.5-10.8,1.5-16,3.1
				c-1.6,0.5-2.9-0.1-3.6-1.1c-1.3-1.8-1-4.8,1.7-5.7c6.2-1.9,12.5-3.1,18.8-3.5c4.8-0.3,9.6-0.3,14.5,0.2c6,1.8,11.7,4.4,17,7.9
				C364.3,163,366,164.3,367.6,165.6z"/>
			<path class="st4" d="M376,174c-9.5,0.3-20.3,5.6-28.5,11c-1.7,1.1-3.3,2.3-4.8,3.4c-0.9,0.7-1.8,1.4-2.6,2c-1.3,1.1-2.8,1-4,0.4
				c-2-1-3.2-3.6-0.9-5.4c1.4-1.1,2.8-2.2,4.4-3.4c8.3-6.1,19.5-12.3,30.5-14.4C372.2,169.6,374.2,171.8,376,174z"/>
			<path class="st4" d="M385,189.7c-7.5,4.4-14.9,10.1-20.2,16.9c-2.4,3.1-4.4,6.3-5.7,9.8c-0.1,0.2-0.2,0.4-0.3,0.6
				c-0.5,1.4-1.6,2.2-2.8,2.3c-2.4,0.4-5-1.4-4-4.2c0.4-1,0.8-2,1.2-2.9c5.6-12.2,16.9-22.1,28.9-28.9
				C383.2,185.4,384.1,187.5,385,189.7z"/>
			<path class="st4" d="M390.2,218.3c-7,8-14.2,15.8-19.7,24.8c-0.3,0.4-0.5,0.8-0.8,1.2c-1.9,3.3-6.5,1.3-6.6-1.7
				c0-0.6,0.1-1.2,0.5-1.8c0.2-0.3,0.3-0.5,0.5-0.8c2.3-3.8,4.9-7.4,7.7-10.8c5.6-7,11.9-13.6,17.6-20.6
				C389.9,211.6,390.1,214.9,390.2,218.3z"/>
			<path class="st5" d="M366.6,307.7c-15.7,37.3-46.2,40.6-76.2,28.4c-2.6-1-5.1-2.2-7.7-3.5c-9.6-4.8-19.1-10.9-27.8-18
				c-3-2.4-5.9-4.8-8.8-7.2c-1.8-1.5-3.6-2.9-5.4-4.4c-10.8-8.9-21.5-17.8-32.8-26.4c-1.9-1.4-3.8-2.8-5.6-4.2
				c-1.3-1-2.6-1.9-3.9-2.9c-7.3-5.3-17.7-11.4-27-18.4c-2.1-1.6-4.1-3.2-6.1-4.9c-6.5-5.6-11.9-11.8-14.3-18.4
				c-15.2-42.1,26.2-72.1,61.7-82.5c30.7-9,66.8-5.8,94.4,10.9c2.8,1.7,5.5,3.5,8.1,5.5c6.7,5.1,12.7,11.1,17.9,18
				c0.9,1.2,1.8,2.4,2.7,3.7c1.4,1.9,2.8,3.9,4.2,5.9c4.9,7.1,9.6,14.6,13.9,22.3c1.2,2.1,2.3,4.3,3.5,6.5c3.1,6,5.8,12.1,8.1,18.3
				c1.3,3.5,2.5,7.1,3.5,10.6C374.5,266.9,375.1,287.5,366.6,307.7z"/>
			<path class="st4" d="M337.7,203.9c-16.5-31.2-60.5-57.6-89.4-57.3c-33.8,0.3-72.4,12.6-77.3,51.4c-2.6,20.5,7.6,35.8,23.2,46.7
				c31.2,21.6,101.5,46.6,134.4,16.1C347.7,243.2,347.7,222.6,337.7,203.9z"/>
			<path class="st4" d="M315.2,161.7c-7.5,1.7-14.8,4.2-22,6.9c-15.7,6-30.8,13.3-45.8,20.8c-13.2,6.6-26.4,13.2-38.9,21.1
				c-14,8.9-34.2,21.5-36.8,39.4c-0.1,0.5-0.2,0.8-0.4,1.2c-2.1-1.6-4.1-3.2-6.1-4.9c3.7-17.7,22.5-30.7,36.6-39.8
				c13.8-8.9,28.4-16.3,43.1-23.7c16.6-8.3,33.5-16.4,51-22.6c3.2-1.1,7-2.6,11.1-3.9C309.8,157.9,312.6,159.8,315.2,161.7z"/>
			<path class="st4" d="M339.9,189.4c-30.2,11.1-56.6,30.3-82.9,48.2c-12.7,8.6-25.4,17.3-36.9,27.4c-4.1,3.6-8.4,7.5-12.2,11.7
				c-1.9-1.4-3.8-2.8-5.6-4.2c3.1-3.5,6.5-6.7,9.9-9.8c12-10.8,25.1-20.2,38.4-29.2c27.1-18.5,54.3-38.3,85.2-50
				C337.1,185.4,338.5,187.4,339.9,189.4z"/>
			<path class="st4" d="M357.3,218.2c-18.8,18.1-38.5,34.8-59.5,50.3c-12.8,9.4-25.4,19.4-38.3,28.7c-4.6,3.3-8.9,6.9-13.4,10.4
				c-1.8-1.5-3.6-2.9-5.4-4.4c5.7-4.2,11.1-8.8,16.6-13.1c11.4-9,23.1-17.4,34.8-26c21.9-16.1,42.4-33.4,61.8-52.3
				C355,213.9,356.1,216,357.3,218.2z"/>
			<path class="st4" d="M368.9,247.1c-9.4,22.6-24.6,42.9-41.9,59.8c-11.1,10.9-23.4,20.9-36.6,29.2c-2.6-1-5.1-2.2-7.7-3.5
				c14.4-8.5,27.6-19.1,39.3-30.8c18.6-18.6,34.8-40.5,43.4-65.5C366.7,240,367.9,243.5,368.9,247.1z"/>
		</g>
		<path class="st1" d="M61.1,193.3c1.9,6.3,6.6,7.9,12.8,8.6c5.8,0.6,12-2.1,14-7.9c1.8-5.2-4.4-2.2-5.9-2.6c-2.9-0.7-6.2,0.9-9.2,1
			c-2.6,0.1-6.6-0.8-9-1.7C62.2,190.1,60.7,191.8,61.1,193.3L61.1,193.3z"/>
	</g>
	<path class="st0" d="M115,116.8c-5.1,2.6-13.9,0-15.9-5.8c-1.7-5,4.3-14.8,6.4-19.2c7.1-14.9,16.8-28.3,25.9-42
		c3.3-4.9,9.6-17.9,15.3-18.8c10-1.5,8.8,8.5,6.8,14.1c-7,19.4-20.3,35.4-27.7,54.5C123.2,106.3,122,113.2,115,116.8z"/>
	<path class="st0" d="M74.3,110.6c-1.1,5.7-8.5,11-14.3,9c-4.9-1.7-9-12.5-11.2-16.8c-7.4-14.7-12.1-30.6-17.3-46.2
		C29.6,51,23.2,38.1,26,33c4.9-8.9,12.1-1.8,15.3,3.3c11,17.4,15.6,37.8,26.1,55.3C71.1,97.6,75.8,102.8,74.3,110.6z"/>
	<path class="st0" d="M131.2,14.1c-2.6,14.7,10.2,35.4,26.5,32.4c13.7-2.5,26.5-13.8,20.2-28C170.5,1.7,135.7-11,131.2,14.1z"/>
	<path class="st0" d="M5,36.4c10.1,11,34.3,13.4,41.8-1.4c6.3-12.4,5.1-29.4-10-33C19-2.3-12.2,17.7,5,36.4z"/>
	<g>
		<path class="st6" d="M160.8,36.6c-17.4,7.2-27.6-25.9-8.3-27.4C167,8.1,175.7,30.4,160.8,36.6z"/>
		<path class="st7" d="M159.1,19.4c1.7,1.4,3.3,3.1,4,5.2c1,2.8,0.5,5-1.6,7.2c-2.3,2.4-6.5,1.6-8.5-0.7c0.2,0.3-2.1-3.4-0.7-1.3
			c-0.2-0.2-0.3-0.4-0.5-0.6c0.6,0.6,0.7,0.6,0.1,0.2c-2.7-1.9-3.4-5.8-1.5-8.6C152.4,18.3,156.5,17.3,159.1,19.4L159.1,19.4z"/>
	</g>
	<g>
		<path class="st6" d="M30.7,36.6C13.3,43.8,3.1,10.7,22.4,9.2C36.9,8.1,45.7,30.4,30.7,36.6z"/>
		<path class="st7" d="M29.1,19.4c1.7,1.4,3.3,3.1,4,5.2c1,2.8,0.5,5-1.6,7.2c-2.3,2.4-6.5,1.6-8.5-0.7c0.2,0.3-2.1-3.4-0.7-1.3
			c-0.2-0.2-0.3-0.4-0.5-0.6c0.6,0.6,0.7,0.6,0.1,0.2c-2.7-1.9-3.4-5.8-1.5-8.6C22.4,18.3,26.5,17.3,29.1,19.4L29.1,19.4z"/>
	</g>
</g>
</svg>
