<?xml version="1.0" encoding="utf-8"?>
<!-- Generator: Adobe Illustrator 22.0.0, SVG Export Plug-In . SVG Version: 6.00 Build 0)  -->
<svg version="1.1" id="Layer_1" xmlns="http://www.w3.org/2000/svg" xmlns:xlink="http://www.w3.org/1999/xlink" x="0px" y="0px"
	 viewBox="0 0 391.2 336.8" style="enable-background:new 0 0 391.2 336.8;" xml:space="preserve">
<style type="text/css">
	.st0{fill:#F26F24;}
	.st1{fill:#C05427;}
	.st2{fill:#F48242;}
	.st3{fill:#F68B24;}
	.st4{opacity:0.5;fill:#C05427;enable-background:new    ;}
	.st5{opacity:0.5;fill:#9F3A22;enable-background:new    ;}
	.st6{fill:#9DCA3E;}
	.st7{fill:#FFFFFF;}
	.st8{fill:#3A3B3A;}
	.st9{fill:#9E3A23;}
	.st10{fill:#C6DC6F;}
</style>
<g>
	<g>
		<g>
			<path class="st0" d="M390.6,223c-0.3,2.6-0.6,5.2-1.1,7.7c-0.7,4.2-1.7,8.3-3,12.4c-0.9,2.6-1.9,5-3.1,7.4
				c-2.8,6.2-6.2,11.7-10.2,16.6c-0.7,0.8-1.4,1.6-2.1,2.4c-1.4,1.6-2.8,3.1-4.3,4.5c-0.2,0.2-0.4,0.3-0.6,0.5l0,0
				c-8.2,6.6-17.1,12-26.4,16.1c-2.1,1-4.3,1.9-6.5,2.7c-23,8.7-48.2,10.3-72,5.8c-3-0.8-6-1.8-8.9-3c-2.2-0.9-4.3-1.8-6.5-2.9
				c-2.1-1.1-4.2-2.2-6.3-3.5c-10.7-5.7-22.5-19.6-23.8-33.3c-0.1-0.5-0.1-1.1-0.1-1.6c-0.2-3.2-0.1-6.7,0.5-10.4
				c-0.4,0.5-0.8,1-1.1,1.5c-1.4,1.9-2.8,3.9-4.1,5.8c-3.6,6.2-8.3,10.5-13.8,13.4c-2.7,1.5-5.6,2.6-8.6,3.4
				c-0.4,0.1-0.8,0.3-1.2,0.4h-0.1c-3.5,1-6.8,1.4-10.1,1.3l0,0l0,0l0,0l0,0l0,0l0,0l0,0c-14.6-0.5-26.6-11.4-39.2-18.4
				c-1-0.6-1.8-1.2-2.6-1.8c-3.8-11.6-18.6-14-24.5-27.1c-1-2.1-1.8-4.5-2.4-7c-0.7-2.9-1.2-5.8-1.4-8.8c-0.4-5.9,0.3-12,3-18.2
				c2-3.1,4.2-5.9,6.6-8.8c8.2-9.7,17.7-19,28-27.5c3.6-3,7.4-5.8,11.2-8.6c3.7-2.7,7.5-5.3,11.4-7.7c2.3-1.4,4.5-2.8,6.8-4.2
				c11-6.5,22.3-12.1,33.8-16.6l0,0c2.7-1.1,5.5-2.1,8.2-3c1.6-0.5,3.1-1.1,4.7-1.6c3.2-1,6.5-2,9.8-2.8c15.5-4,31.8-5.7,48-4.7l0,0
				c2.5,0.1,5,0.3,7.5,0.6c17.8,1.9,35.2,7.1,50.9,16c1.5,0.8,3,1.6,4.4,2.5c1.3,0.7,2.5,1.5,3.8,2.3c1.1,0.7,2.2,1.4,3.3,2.2l0,0
				c4.9,3.3,9.5,7.1,13.7,11.2l0,0c6.2,6.1,11.6,13.1,16,21.1c1.5,2.8,2.8,5.7,4,8.6c0.2,0.5,0.4,1,0.6,1.4l0,0l3.4,9.6
				C390.7,193.2,392.2,208.1,390.6,223z"/>
			<path class="st1" d="M218.6,239.1c0,0.2-0.1,0.5-0.2,0.8c0-0.4,0.1-0.7,0.1-1.1c0.1-0.4,0.1-0.9,0.3-1.3
				C218.7,238.3,218.7,238.7,218.6,239.1z"/>
			<path class="st1" d="M218.8,237.5C218.8,237.5,218.8,237.6,218.8,237.5v-0.1C218.9,237.5,218.8,237.5,218.8,237.5z"/>
			<path class="st2" d="M196.7,127.5c-3.4,2.3-7,6-5.6,9.9c0.5,1.6,1.9,2.7,3.3,3.5c4.7,2.5,10.4,1.2,15.5-0.2
				c17-4.7,33.9-9.9,50.7-15.1c4.5-1.4,14.9-3.4,13.1-10.5c-1.1-4.5-8.2-6.3-12.2-6.8c-7.4-0.9-14.9,0.6-22.2,1.8
				C224.1,112.8,209.4,118.7,196.7,127.5z"/>
		</g>
		<path class="st3" d="M234.6,209c-0.6,1.1-1.8,1.8-3,1.8c-0.2,0-0.4,0-0.6,0c-0.2,0-0.3,0-0.5-0.1s-0.4-0.1-0.6-0.2
			c-0.6-0.4-1.1-1-1.3-2c-0.6-3.3-1.4-6.5-2.4-9.7c-8.7-27.1-33-51.9-58.7-62.3c2.3-1.4,4.5-2.8,6.8-4.2
			c24.8,11.7,47.7,35.1,57.2,61.4c1.4,3.8,2.5,7.7,3.3,11.6c0.1,0.3,0.1,0.5,0.1,0.8c0.1,0.2,0.1,0.5,0.1,0.7c0,0,0,0,0,0.1
			C235.1,207.6,234.9,208.4,234.6,209z"/>
		<path class="st3" d="M265.9,182.1c0,0.1-0.1,0.1-0.1,0.2c-0.1,0.2-0.2,0.3-0.3,0.5l-0.1,0.1c-1,1.5-2.6,1.7-3.9,1.2
			c-0.1,0-0.1,0-0.2-0.1c-0.4-0.2-0.7-0.4-1-0.6c-1-0.9-1.5-2.4-0.5-4c1-1.7,1-3.8,0.5-6c-0.9-3.7-3.3-7.6-4.6-10
			c-3.6-6.4-7.8-12.5-12.3-18.2c-3.2-4.1-6.6-7.8-10.1-11.1c-6.2-6-13-11-20.5-15.6c-1.5-0.9-3.1-1.9-4.7-2.8c2.7-1.1,5.5-2.1,8.2-3
			c1.5,0.8,2.9,1.7,4.4,2.6c6.6,4.1,12.8,8.6,18.1,14.3c0.7,0.7,1.4,1.5,2.1,2.3c4,4.5,7.8,9.3,11.4,14.2
			c4.1,5.6,11.9,15.5,14.4,24.7C267.7,174.7,267.8,178.7,265.9,182.1z"/>
		<path class="st3" d="M307.8,176.7c-0.1,0.2-0.2,0.4-0.3,0.6c-0.3,0.5-0.6,1-0.9,1.5s-0.6,0.9-1,1.3c-0.2,0.3-0.5,0.5-0.7,0.7
			c-2.5,2.3-6-0.2-5.7-2.8c0-0.3,0.1-0.7,0.3-1c0.2-0.3,0.4-0.6,0.7-0.8c0.1-0.1,0.2-0.1,0.2-0.2l0,0c2.3-2.4,2.5-6.6,2.1-10.6
			c-0.2-2.3-0.7-4.6-1-6.2c-1.1-6-2.6-12-4.5-17.8c-4.4-13.4-12.5-25-18.2-37.8c2.5,0.1,5,0.3,7.5,0.6c4.1,8.2,9.2,16,13,24.4
			c2.6,5.7,4.6,11.8,6.2,17.9c1.3,5.1,3.6,12.7,3.9,19.7C309.6,169.9,309.2,173.6,307.8,176.7z"/>
		<path class="st3" d="M338.1,183.9c-0.7,1.9-1.5,3.7-2.3,5.5l0,0c-0.1,0.3-0.3,0.7-0.4,1s-0.2,0.5-0.3,0.7
			c-0.2,0.4-0.4,0.9-0.6,1.3c0,0.1-0.1,0.2-0.1,0.3c-1.6,2.9-5.7,1-5.9-1.9c0-0.5,0.1-1.1,0.3-1.7c0.1-0.3,0.3-0.7,0.4-1
			c0.2-0.4,0.4-0.8,0.5-1.3c0.1-0.3,0.3-0.6,0.4-1c1.2-2.8,2.3-5.6,3.3-8.4c6.6-17.6,10.6-36.1,8.1-54.9c1.3,0.7,2.5,1.5,3.8,2.3
			c1.1,0.7,2.2,1.4,3.3,2.2l0,0C350.1,146.6,345.4,165.6,338.1,183.9z"/>
		<path class="st3" d="M386.5,179.1c-0.6,1.1-1.2,2.3-1.9,3.4c-8.4,13.5-24.1,23.6-38.1,29.2l0,0c-0.1,0.1-0.3,0.1-0.4,0.2
			c-0.6,0.3-1.2,0.5-1.9,0.7h-0.1c-0.3,0.1-0.5,0.2-0.8,0.2c-3.4,0.4-4.7-5.2-1-6.6h0.1c0.6-0.2,1.2-0.5,1.9-0.7
			c0.1-0.1,0.3-0.1,0.4-0.2c0.3-0.1,0.6-0.3,0.9-0.4h0.1c14-5.9,30-16.9,36-31.2l0,0c0.6-1.4,1-2.7,1.4-4.2L386.5,179.1z"/>
		<path class="st3" d="M390.6,223c-0.3,2.6-0.6,5.2-1.1,7.7c-2.7,1.1-5.5,2-8.3,2.6l0,0c-11.2,2.6-23.2,1.8-34.3-1.8
			c-0.5-0.2-1-0.3-1.5-0.5c-0.2-0.1-0.4-0.2-0.6-0.3c-2.8-1.6-1.7-6.2,1.2-6.3c0.3,0,0.7,0.1,1.1,0.2s0.7,0.3,1.1,0.4
			c11.6,3.8,23.9,4.3,35.2,0.8C386,225.1,388.3,224.2,390.6,223z"/>
		<path class="st3" d="M371.2,269.7c-1.4,1.6-2.8,3.1-4.3,4.5c-0.2,0.2-0.4,0.3-0.6,0.5l0,0c-1.7-0.9-3.3-1.9-4.9-2.9
			c-2.3-1.4-4.5-2.8-6.8-4.2c-7.5-4.9-14.8-10.7-19.5-18.3c0-0.1-0.1-0.1-0.1-0.2s-0.1-0.1-0.1-0.1l0,0c-0.5-0.8-0.5-1.6-0.3-2.3
			l0,0c0.3-0.9,1-1.6,1.8-2l0,0c0.5-0.3,1.1-0.4,1.7-0.4c0.4,0,0.8,0.1,1.2,0.3c0.5,0.2,1,0.6,1.4,1.3c4.6,7.4,12,12.9,19.5,17.6
			c2.1,1.3,4.2,2.5,6.2,3.7C368,267.9,369.6,268.8,371.2,269.7z"/>
		<path class="st3" d="M339.9,291.7c-2.1,1-4.3,1.9-6.5,2.7c-2.9-3.3-5.6-6.9-7.8-10.7c-4.3-7.3-7.2-15.5-7.8-23.9
			c0-0.6-0.1-1.1-0.1-1.7c0-0.2,0-0.3,0-0.5c0.3-2.7,3.5-3.4,5.4-2c0.6,0.4,1,1,1.2,1.9c0,0.2,0.1,0.4,0.1,0.7
			c0.3,8.1,3.1,16.1,7.4,23.1C334.1,285,336.9,288.6,339.9,291.7z"/>
		<path class="st3" d="M289.2,259c-4.6,7.8-5.7,16.6-5.8,25.5c0,4.3,6.6,4.3,6.6,0c0.1-7.8,0.9-15.4,4.9-22.2
			C297.1,258.7,291.4,255.3,289.2,259L289.2,259z"/>
		<path class="st3" d="M271.5,235.2c-17.9-0.4-35.8,17.9-42.1,33.4c-1.6,4,4.8,5.7,6.4,1.8c5.2-12.7,21-28.8,35.7-28.5
			C275.8,242,275.8,235.3,271.5,235.2L271.5,235.2z"/>
		<path class="st3" d="M273.9,225.6c-11.7-9.3-25.9-13.8-40.4-16.8c-4.2-0.9-6,5.5-1.8,6.4c13.2,2.7,26.7,6.5,37.4,15.1
			C272.5,232.9,277.2,228.3,273.9,225.6L273.9,225.6z"/>
		<path class="st3" d="M286.4,218.2c-1-7.9-4.4-15.3-8.4-22.1c-3.1-5.3-7.8-12.6-14.4-13.9c-4.2-0.8-6,5.6-1.8,6.4
			c5.3,1,8.8,8,11.2,12.2c3,5.2,5.9,11.3,6.7,17.3C280.2,222.4,286.9,222.5,286.4,218.2L286.4,218.2z"/>
		<path class="st3" d="M304.8,215.6c1.2-6.7,1.8-13.4,2.1-20.2c0.2-5.7,0.4-12.6-2.4-17.7c-2.1-3.7-7.8-0.4-5.7,3.3
			c2.3,4,1.6,9.9,1.5,14.4c-0.1,6.2-0.8,12.4-1.9,18.5C297.7,218,304.1,219.8,304.8,215.6L304.8,215.6z"/>
		<path class="st3" d="M312.2,217c12.5-2.6,20.2-15.7,23.5-27.1c1.2-4.1-5.2-5.9-6.4-1.8c-2.7,9.2-8.7,20.3-18.9,22.4
			C306.3,211.5,308,217.9,312.2,217L312.2,217z"/>
		<path class="st3" d="M309.6,219.7c12.7,2.6,27.5-0.1,36.8-9.7c3-3.1-1.7-7.8-4.7-4.7c-7.6,7.9-19.9,10.1-30.4,8
			C307.2,212.4,305.4,218.8,309.6,219.7L309.6,219.7z"/>
		<path class="st3" d="M305.8,219.9c3.6,6.5,8.3,12.4,13.3,17.9c4.1,4.5,9.2,9.4,15.2,11c4.1,1.1,5.9-5.3,1.8-6.4
			c-5.4-1.5-9.7-6.5-13.3-10.4c-4.3-4.7-8.1-9.9-11.2-15.5C309.4,212.8,303.7,216.2,305.8,219.9L305.8,219.9z"/>
		<path class="st3" d="M301.8,217.3c0,14.2,1.3,27.9,5.4,41.6c1.2,4.1,7.6,2.3,6.4-1.8c-3.9-13.1-5.1-26.2-5.2-39.8
			C308.4,213.1,301.8,213.1,301.8,217.3L301.8,217.3z"/>
		<path class="st3" d="M299.6,213c-5.7,10.5-26.2,25-19.5,38.7c1.9,3.8,7.6,0.5,5.7-3.3c-2.5-5,5.2-13.3,8-16.9
			c3.9-4.9,8.4-9.6,11.4-15.2C307.4,212.6,301.7,209.2,299.6,213L299.6,213z"/>
		<path class="st4" d="M176,270.4c8.6,0.2,21.6-3.3,27.8-8.2c6.5-5.2,10.4-13,13.3-20.7c2.9-7.8,5.1-15.9,9.1-23.2
			c3.4-6.3,8.2-11.9,13-17.2c3.8-4.2,7.7-8.3,12.3-11.6c10.2-7.3,23-9.8,35.3-12.3c3.9-0.8,7.8-1.5,11.7-1.4
			c4.5,0.1,8.9,1.4,13.2,2.8c9,3,17.8,6.7,24.3,13.6c8.1,8.4,11.9,21.1,9.9,30.4c2.7-14.6-3.8-40.6-17.9-49.9
			c-5.8-3.8-12.6-5.8-19.4-6.8c-10.5-1.6-21.3-1.2-31.6,1.4c-28.3,6.9-50.7,28.4-68.2,51.7c-1.6,2.2-3.3,4.4-4.3,7
			c-3.8,9.4,1.1,20.7-2.9,30c-3,7-7.8,8.4-14.6,11.8C184.7,268.9,178.3,270.7,176,270.4L176,270.4z"/>
		<path class="st4" d="M312.6,216.5c-0.1-2.2-0.6-4.3-1.4-6.3c-0.6-1.6-1.4-3.1-2.8-4.1c-1.9-1.4-4.4-1.6-6.8-1.6
			c-5.8,0-11.6,0.4-17.1,2.3c-5.5,1.9-10.6,5.2-13.7,10c-2.2,3.4-3.4,7.4-4,11.5c-1.4,9.5,0.9,20.5,8.9,25.9
			c3.5,2.4,7.7,3.4,11.8,4.4c5.3,1.2,11.1,2.4,16.1,0.1c-6.6-0.5-13.2-1.8-18.9-5.1c-5.7-3.3-10.4-8.7-11.5-15.2
			c-1-6,1.2-12.4,5.3-17c4.1-4.6,9.8-7.5,15.8-8.7c2.3-0.5,4.7-0.8,7.1-0.4c3.9,0.6,7.3,2.7,10.6,4.8c0.7-0.1,0.6-1.3-0.1-1.3
			s-0.7,1.2-0.1,1.3L312.6,216.5z"/>
		<path class="st5" d="M218,242.1c0.9-6.1,2.5-12.1,4.8-17.8c2.5-5.7,5.6-11,9.3-16c3.8-4.9,8.1-9.4,12.9-13.4
			c4.8-3.9,10-7.4,15.5-10.3c5.6-2.8,11.4-5,17.5-6.6c3-0.6,6.1-1.4,9.2-1.7s6.3-0.6,9.4-0.5c6.3,0,12.5,0.9,18.5,2.7
			c6,1.9,11.8,4.7,16.7,8.7c2.5,1.9,4.7,4.3,6.6,6.7c2,2.5,3.6,5.3,4.9,8.2c2.7,5.8,3.9,12.1,3.9,18.5c0,3.2-0.4,6.3-1.2,9.4
			c-0.2,0.8-0.4,1.5-0.6,2.3l-0.4,1.1c-0.2,0.5-0.3,0.8-0.5,1.1c-0.6,1.4-1.1,2.8-1.9,4.3c-1.3,2.7-3.2,5.6-5.2,7.9
			c-2.2,2.3-4.5,4.5-7.1,6.3c-5.3,3.5-11.3,5.9-17.5,6.8c-3.1,0.5-6.3,0.7-9.4,0.5c-3.2-0.1-6.3-0.8-9.3-1.3
			c-6.2-1.3-12.2-4.1-16.6-8.8c-2.2-2.3-3.8-5.2-4.7-8.2c-0.9-3.1-1.1-6.3-0.8-9.4v-0.1c0.2-0.9,0.4-1.9,0.7-2.8
			c0.1-0.5,0.3-0.9,0.5-1.3c0.1-0.2,0.2-0.4,0.3-0.7l0.3-0.6l0.6-1.2l0.3-0.6c0.1-0.1,0.1-0.1,0.2-0.4l0.2-0.3l1.5-2.3l0,0
			c0.5-0.7,0.9-1.4,1.4-2s1-1.3,1.6-1.8s1.2-1.1,1.8-1.6c0.7-0.5,1.3-1,2-1.4c2.7-1.7,5.8-2.9,8.9-3.5c1.6-0.3,3.2-0.4,4.8-0.5
			c1.6,0,3.2,0.2,4.7,0.5c0.8,0.2,1.5,0.4,2.3,0.7c0.7,0.3,1.5,0.6,2.2,0.9c0.7,0.4,1.4,0.8,2.1,1.2l1.9,1.4l-1.9-1.4
			c-0.7-0.4-1.4-0.7-2.1-1.1c-0.7-0.3-1.5-0.6-2.2-0.8s-1.5-0.4-2.3-0.6c-1.5-0.3-3.1-0.4-4.7-0.4c-1.6,0.1-3.1,0.2-4.6,0.6
			c-3,0.7-6,1.9-8.6,3.6c-0.7,0.4-1.2,0.9-1.9,1.4c-0.6,0.5-1.1,1.1-1.7,1.6c-0.5,0.5-1,1.2-1.5,1.8c-0.4,0.6-0.8,1.3-1.2,1.9l0,0
			l-1.5,2.4l-0.2,0.3l-0.1,0.2l-0.3,0.6l-0.6,1.3l-0.3,0.6c-0.1,0.1-0.2,0.4-0.2,0.6c-0.2,0.4-0.3,0.9-0.4,1.3
			c-0.3,0.9-0.5,1.7-0.6,2.6v-0.1c-0.3,3,0,6,0.9,8.9c0.9,2.8,2.5,5.4,4.5,7.6c4.2,4.3,9.9,6.8,15.7,8c3.1,0.5,6,1.1,9,1.1
			c3,0.1,6,0,9-0.6c5.9-0.9,11.7-3.2,16.6-6.6c2.5-1.7,4.7-3.7,6.7-5.9c1.9-2.3,3.5-4.6,4.9-7.5c0.6-1.2,1.2-2.8,1.8-4.2
			c0.1-0.3,0.4-0.8,0.4-1l0.3-1.1c0.2-0.7,0.4-1.4,0.6-2.2c0.7-2.9,1.1-5.9,1.1-8.9c0-6-1.2-12-3.7-17.4c-1.2-2.7-2.7-5.4-4.5-7.7
			c-0.4-0.6-1-1.2-1.4-1.8c-0.5-0.6-1-1.1-1.5-1.6l-1.6-1.6l-1.7-1.5c-4.6-3.8-10.1-6.6-15.9-8.4c-5.8-1.8-11.8-2.7-17.9-2.7
			c-3-0.1-6.1,0.1-9.1,0.4c-3.1,0.3-6,1-9,1.6c-5.9,1.5-11.7,3.5-17.2,6.2c-5.4,2.8-10.6,6-15.4,9.9c-4.7,3.9-9.1,8.2-12.9,13
			c-3.8,4.8-7,10.1-9.6,15.6C220.9,230.2,219.1,236,218,242.1z"/>
		<path class="st4" d="M390.6,223c-0.3,2.6-0.6,5.2-1.1,7.7c-0.7,4.2-1.7,8.3-3,12.4c-0.9,2.6-1.9,5-3.1,7.4
			c-2.8,6.2-6.2,11.7-10.2,16.6c-0.7,0.8-1.4,1.6-2.1,2.4c-1.4,1.6-2.8,3.1-4.3,4.5c-0.2,0.2-0.4,0.3-0.6,0.5l0,0
			c-8.2,6.6-17.1,12-26.4,16.1c-2.1,1-4.3,1.9-6.5,2.7c-23,8.7-48.2,10.3-72,5.8c-3-0.8-6-1.8-8.9-3c-2.2-0.9-4.3-1.8-6.5-2.9
			c-2.1-1.1-4.2-2.2-6.3-3.5c-10.7-5.7-22.5-19.6-23.8-33.3c0.1-5,0.8-9.9,1.9-14.5c0.1-0.5,0.2-0.9,0.3-1.2
			c0.1-0.2,0.1-0.4,0.2-0.6l0,0c-1.6,14.4,7.4,31.8,19.1,39.9c12.4,8.7,28.2,11.4,43.4,11.1c15.2-0.2,30.4-3.1,44.7-8.5
			c2.1-0.8,4.2-1.6,6.2-2.5c6.4-2.7,12.5-6,18.4-9.7c1.5-1,3-2,4.5-3c1.9-1.3,3.8-2.7,5.6-4.2c8.8-7.2,15.7-15.9,19.8-27.1
			c0.3-0.9,0.7-1.8,1-2.8l0,0c0.8-2.4,1.6-4.9,2.3-7.5c3.4-12.6,4.7-26.4,2.4-38.8c-0.3-1.6-0.7-3.1-1.1-4.7
			c-0.8-2.9-1.8-5.8-2.9-8.8l0,0c-4.4-11.3-11.4-23-19.3-35.3c6.2,6.1,11.6,13.1,16,21.1c1.5,2.8,2.8,5.7,4,8.6
			c0.2,0.5,0.4,1,0.6,1.4l0,0l3.4,9.6C390.7,193.2,392.2,208.1,390.6,223z"/>
	</g>
	<g>
		<path class="st6" d="M67,65c0.6-10.4,0.3-20.8-1-31.2c-6.3,0.9-12.2-3.4-15.8-8.6c-3.8-5.6-5.4-13.5-1.3-18.8
			c2.8-3.6,7.6-5.1,12.1-5.8C69.3-0.7,78.5-0.1,85.2,5c6.8,5,10,15.3,5.2,22.3c-2.7,4-7.4,6.2-12,7.6c-1.1,0.3-2.3,0.7-2.8,1.7
			c-0.4,0.7-0.4,1.5-0.4,2.2c0.2,15.4,0.3,30.7,0.5,46.1L67,65z"/>
		<path class="st6" d="M20.5,97.3c0.6-10.4,0.3-53.1-1-63.5c-6.3,0.9-12.2-3.4-15.8-8.6c-3.8-5.6-5.4-13.5-1.3-18.8
			C5.2,2.8,10,1.3,14.5,0.6C22.8-0.7,32-0.1,38.7,5c6.8,5,10,15.3,5.2,22.3c-2.7,4-7.4,6.2-12,7.6c-1.1,0.3-2.3,0.7-2.8,1.7
			c-0.4,0.7-0.4,1.5-0.4,2.2c0.2,15.4,0.3,48.1,0.5,63.5L20.5,97.3z"/>
		<path class="st7" d="M51.7,11c4.1,0.6,7,1,10.5,1.3c7.3,0.6,14.5,1.3,21.8,1.9c-0.8,6.3-5.4,11.8-11.4,13.5
			c-1.7,0.5-3.4,0.7-5.2,0.9c-1.6,0.2-3.2,0.3-4.9,0.1c-3.8-0.5-7.3-3-9.2-6.4C51.5,18.9,51,14.8,51.7,11L51.7,11z"/>
		<path class="st7" d="M3.4,9.4c4.1,0.6,7,1,10.5,1.3c7.3,0.6,14.5,1.3,21.8,1.9C35,18.8,30.3,24.3,24.4,26
			c-1.7,0.5-3.4,0.7-5.2,0.9c-1.6,0.2-3.2,0.3-4.9,0.1c-3.8-0.5-7.3-3-9.2-6.4C3.2,17.3,2.7,13.2,3.4,9.4L3.4,9.4z"/>
		<path class="st8" d="M59.4,12c-0.3,2.3,0.5,4.6,2,6.4c1.3,1.6,3.2,2.9,5.2,2.8c0.4,0,0.8-0.1,1.2-0.2c3.2-0.9,6.5-4.3,6.1-7.5
			L59.4,12z"/>
		<path class="st8" d="M11.4,10.4c-0.3,2.3,0.5,4.6,2,6.4c1.3,1.6,3.2,2.9,5.2,2.8c0.4,0,0.8-0.1,1.2-0.2c3.2-0.9,6.5-4.3,6.1-7.5
			L11.4,10.4z"/>
		<path class="st9" d="M37.5,224c-5.1-8.5-1.9-21.5,8.6-23.5c9.9-1.9,21.6-0.7,31.6-0.5c11.2,0.2,22.5,1.1,33.3,3.9
			c9.8,2.5,19.3,6.4,27.6,12.1c7.2,4.9,17.9,13.1,18.7,22.4c0.7,7.4-3.4,13.3-9.9,16.7c-15.5,8-36.9,4.7-53.1,0.9
			c-8.8-2.1-17.4-5.1-25.6-8.8c-7.8-3.5-18.4-7.8-24.6-13.9C41.4,230.4,39.1,227.4,37.5,224z"/>
		<path class="st6" d="M334.1,289.7c-15.7-4-30.9-10.6-46.5-14.7c-10.4-2.7-21.2-4.3-31-9.5c-6.7-3.6-12.9-8.8-19-13.9
			c-30.7-25.7-62.1-48.1-98.7-65.4c-14.5-6.9-28.4-15.2-37.3-29.1c-1.5-3.7-2.5-7.6-3.1-11.9c-0.6-4.3-0.7-8.8-0.2-13.8
			c0.1-4.1,0.1-8.1-0.1-12.1c-0.2-3.7-0.6-7.4-1.1-11c-2.5-16.8-8.7-32.4-20.6-42.4c-3-2.5-6.3-4.6-10.1-6.4
			C34.1,47.1,0,75.5,0,103.9c0,14.2,17.7,20.5,23.9,33c1.2,2.5,2,5.2,2,8.3c1.4,3.5,2.3,7,2.8,10.5c0.6,3.5,0.8,6.9,0.9,10.4
			c0.5,3.3,0.9,6.6,1.2,9.8c0.4,3.3,0.7,6.5,0.9,9.8c0.2,4.1,0.3,8.4,0.4,12.8c0.1,4.5,0.1,9.1,0.1,13.8c-0.2,7-0.6,14.1-0.7,21.4
			c-0.1,3.6-0.1,7.2,0,10.8c-5.9,44,36.7,66.7,76.4,59c4.4,0.4,8.8,0.8,13.3,1.2c57.8,4.8,115.3,11.1,175.6,23.6
			c25.9,5.5,62,0.3,58.9-36.8C349,289.1,340.2,291.3,334.1,289.7z"/>
		<path class="st10" d="M296.7,328.3c-65-13.4-126.7-19.8-188.9-24.7c-4.2-0.3-8.3-0.6-12.5-1c-6.6-0.6-12.8-2-18.8-4
			c-0.9-0.3-1.7-0.6-2.6-0.9c-11.6-3.5-22.9-9.2-26.3-21.3c-0.6-1.2-1.1-2.4-1.7-3.5c-5-10.7-9.3-21.2-14.8-21.2
			c-17,2.8-2.8,31.2,9.3,43.4c0.9,0.9,1.9,1.8,2.8,2.6c2.7,2.5,5.3,4.7,7.3,6.6c1,0.7,2,1.4,3.1,2.2c1,0.7,2.1,1.4,3.2,2.2
			c0.9,0.5,1.8,0.9,2.7,1.4c2.7,1.3,5.5,2.5,8.3,3.5c7.5,2.7,15.4,4.4,23.3,4.7c2.6-0.1,5.2-0.1,7.8-0.2c2.6-0.1,5.2-0.2,7.7-0.2
			c47.6-1.5,95.4,2.2,142.5,11.1c22.7,4.3,45.7,9.7,68.6,7.1c10.3-1.2,20.8-4.2,29.5-11.3c5.9-4.8,21.1-21.9,13-30.1
			c-1.3-1.4-2.9-2.3-4.6-2.9C358.7,328.6,322.7,333.9,296.7,328.3z"/>
		<path class="st10" d="M184.5,238.7c-0.8,1.2,0.2,3.4,2.4,4.8c2.1,1.4,4.5,1.5,5.3,0.2c0.8-1.2-0.2-3.4-2.4-4.8
			C187.7,237.5,185.3,237.4,184.5,238.7z"/>
		<path class="st10" d="M211.9,254.6c-0.8,1.2,0.2,3.4,2.4,4.8c2.1,1.4,4.5,1.5,5.3,0.2c0.8-1.2-0.2-3.4-2.4-4.8
			C215.1,253.4,212.7,253.3,211.9,254.6z"/>
		<path class="st10" d="M223.8,254.6c-0.8,1.2,0.2,3.4,2.4,4.8c2.1,1.4,4.5,1.5,5.3,0.2s-0.2-3.4-2.4-4.8
			C227,253.4,224.6,253.3,223.8,254.6z"/>
		<path class="st10" d="M200.1,240.9c-1.2,1.8,0.4,4.9,3.4,6.9c3.1,2,6.5,2.2,7.7,0.4c1.2-1.8-0.4-4.9-3.4-6.9
			C204.7,239.3,201.2,239.1,200.1,240.9z"/>
		<path class="st10" d="M56.3,131.3c-1.5,0.1-2.6,2.2-2.5,4.7s1.4,4.5,2.9,4.4s2.6-2.2,2.5-4.7C59.1,133.2,57.8,131.2,56.3,131.3z"
			/>
		<path class="st10" d="M59.6,162.8c-1.5,0.1-2.6,2.2-2.5,4.7s1.4,4.5,2.9,4.4s2.6-2.2,2.5-4.7S61.1,162.7,59.6,162.8z"/>
		<path class="st10" d="M66.6,172.4c-1.5,0.1-2.6,2.2-2.5,4.7s1.4,4.5,2.9,4.4s2.6-2.2,2.5-4.7S68.1,172.3,66.6,172.4z"/>
		<path class="st10" d="M63.7,145.2c-2.2,0.1-3.8,3.2-3.6,6.8c0.2,3.7,2.1,6.6,4.3,6.4c2.2-0.1,3.8-3.2,3.6-6.8
			C67.7,147.9,65.8,145.1,63.7,145.2z"/>
		<path class="st0" d="M5.4,102.1c2.6,5.4,6.8,10.7,12.7,11.5c3.1,0.4,6.3-0.5,9.3-1.6c8.6-3.1,16.9-7.1,24.6-12
			c-1.6-1.3-3.9-1.3-5.9-1.1c-13.5,1.2-27.1,5.6-40.4,2.8L5.4,102.1z"/>
	</g>
</g>
</svg>
