<?xml version="1.0" encoding="utf-8"?>
<!-- Generator: Adobe Illustrator 22.0.0, SVG Export Plug-In . SVG Version: 6.00 Build 0)  -->
<svg version="1.1" id="Layer_1" xmlns="http://www.w3.org/2000/svg" xmlns:xlink="http://www.w3.org/1999/xlink" x="0px" y="0px"
	 viewBox="0 0 392.6 386.6" style="enable-background:new 0 0 392.6 386.6;" xml:space="preserve">
<style type="text/css">
	.st0{fill:#FFD256;}
	.st1{fill:#F69E23;}
	.st2{fill:#F0B923;}
	.st3{fill:#F05674;}
	.st4{fill:#F16888;}
	.st5{fill:#F48696;}
	.st6{opacity:0.2;fill:#FFFFFF;enable-background:new    ;}
	.st7{fill:#FFFFFF;}
	.st8{fill:#010101;}
</style>
<g>
	<path class="st0" d="M384.3,372.7c-20.8,21.8-71.2,11.5-98.9,11.3c-39-0.2-77.6-6.1-116.6-7.8c-18.8-0.8-38.6-3.9-57.9,0.6
		c-22.9,5.3-37.8,4.1-47.5-1.8c-4.8-3-8.4-7.1-11-12.3c-0.5-7.1-1.6-14.4-3.2-21.9c-1.6-7.5-3.6-15.2-5.9-23
		c-8.2-28.7-18.6-55.9-23.9-85.3c-0.6-3.3-1.1-6.6-1.5-9.8c-0.2-21.8-12.7-37.4-17.3-59.2c-3.1-15.6,6.2-31.2,20.5-37.8
		c2.7-1.1,5.6-1.9,8.6-2.5c23.6-4.1,55.3-0.7,73.6,16.2c10.2,9.4,14.2,20.4,14.3,33.7c0.2,20.7-1.5,21.4,13.6,37.7
		c15,16.2,31.1,31.2,52.3,40.8c6.3,3,12.5,5.9,18.9,8.8c6.3,2.9,12.7,5.8,19.3,8.8c7.8,3.6,74.2,37.8,119.9,66.2
		C369.1,352.6,389.2,367.6,384.3,372.7z"/>
	<path class="st1" d="M151.2,297.2c-0.5,0.5-1,1-1.4,1.7c1.1-1.5,1-1.3-0.5,0.6c-0.9,1.6-1.1,3.2-1,5c0,1.3,0.1,2.6,0.1,3.8
		c0.1,2.9,1.5,5.6,4.1,7.1c3,1.8,7.5,1.5,9.9-1.3c0.8-0.9,1.6-1.9,2.2-2.9c1-1.8,1.2-3.3,1.4-5.3c0.2-1.9-0.6-3.8-0.9-5.6
		c-0.3-2.1-2.2-4.1-3.9-5.1c-2-1.2-4.4-1.5-6.6-0.9c-4.5,1.2-7.2,6-6,10.5c0.2,0.8,0.5,1.5,0.8,2.2c0.5,1.4-0.1-2.3-0.1-0.8
		c0-0.5,0.1-0.9,0.1-1.4c0.6-1.2,0.6-1.4,0.1-0.6c5,0.7,10,1.3,15,2c-0.2-1.3-0.4-2.5-0.6-3.8c-0.4-2.8-2.2-4.7-4.4-6.3
		C156.9,294.5,153.3,295.2,151.2,297.2L151.2,297.2z"/>
	<path class="st1" d="M179.6,311.9v-0.1c-2.1,0.6-4.3,1.2-6.4,1.8c0.1,0.3,0.2,0.7,0.3,1c0.5,1.6,2.1,2.6,3.8,2.1
		c1.5-0.4,2.7-2.2,2.1-3.8v-0.1c-0.4-1.3-1.5-2.2-2.9-2.2c-1.2,0-2.7,0.9-2.9,2.2v0.1c2,0.5,3.9,1.1,5.9,1.6c0-0.3,0.1-0.7,0.1-1
		c0.3-1.8-0.4-3.6-2.3-4.1c-1.6-0.4-3.8,0.5-4.1,2.3v0.1c-0.3,2.1,0.8,4.2,3.2,4.2C178.4,316.1,180.3,314,179.6,311.9L179.6,311.9z"
		/>
	<path class="st1" d="M159.5,321.2c-0.1,0.1-0.3,0.1-0.4,0.2c-2,1.1-3.3,3.4-3.3,5.7c0,3.1,2,5.4,4.9,6.4c0.1,0.1,0.3,0.1,0.4,0.2
		c4.2,1.4,8.6-2.3,8.6-6.6C169.8,321.9,164,318.7,159.5,321.2L159.5,321.2z"/>
	<path class="st2" d="M384.3,372.7c-20.8,21.8-71.2,11.5-98.9,11.3c-39-0.2-77.6-6.1-116.6-7.8c-18.8-0.8-38.6-3.9-57.9,0.6
		c-22.9,5.3-37.8,4.1-47.5-1.8c-4.8-3-8.4-7.1-11-12.3c-0.5-7.1-1.6-14.4-3.2-21.9c-1.6-7.5-3.6-15.2-5.9-23
		c-10.9-38.2-27.3-50.6-28.8-92.2c-0.7-18.5-3.9-30.7-3.7-32.7c5.7,15.1,12,30,15.5,42.4c6.4,22.9,15.1,44,23.2,66.3
		c6,16.7,7.9,35.3,26.3,44.2c16.8,8.2,38.6,4.8,56.4,8.2c38.6,7.3,76,11.7,113.1,20.1c17,3.9,36.7,5.7,53.7,4.3
		c14.6-1.2,43.1,3.3,55-4c9-5.5,6.8-14.3,0.5-20.5c-8.9,0.7-20.1-4-16.4-13.8c0.7-2,1.9-3.5,3.4-4.7
		C369.1,352.6,389.2,367.6,384.3,372.7z"/>
	<g>
		<path class="st3" d="M366.5,178.8c4.1,4.5,5.7,9.9,4.9,16c-1.9,13.6,19.3,17.3,20.9,3.8c1.7-13.9-3.3-28.3-18.1-31.9
			C368,165,361.9,173.7,366.5,178.8L366.5,178.8z"/>
		<path class="st4" d="M357.8,161.2c27.3,18,32.5,47.7,30.3,78.9c-2,28.6-14.4,56-47.9,57.8c-38,2.1-64.6-38-78-68.3
			c-11.6-26.4-19.4-43.8,4.2-63.2C291.2,146.1,330.1,142.9,357.8,161.2z"/>
		<path class="st5" d="M123.8,234.2c6.9,19.1,36.4,34.6,52.4,46.2c22.1,16,41.5,33,62.6,49.9c42.3,33.9,99,50.4,123.5-7.7
			c21.1-49.9-8.2-102-37.1-141.5c-29.5-40.2-86.9-51.5-133.2-38C152.7,154.4,107,187.6,123.8,234.2z"/>
		<path class="st6" d="M330.4,207.7c-18.3-34.6-66.9-63.7-98.9-63.4c-37.3,0.3-80.1,13.9-85.5,56.9c-2.9,22.6,8.4,39.7,25.6,51.6
			c34.5,23.9,112.3,51.5,148.7,17.8C341.4,251.1,341.4,228.4,330.4,207.7z"/>
	</g>
	<path class="st1" d="M21.7,178.4c2.1,6.9,7.3,8.8,14.1,9.5c6.5,0.7,13.3-2.3,15.5-8.8c1.9-5.7-4.8-2.4-6.6-2.8
		c-3.2-0.7-6.9,1-10.2,1.1c-2.9,0.1-7.3-0.9-10-1.9C22.9,174.8,21.2,176.8,21.7,178.4L21.7,178.4z"/>
	<path class="st0" d="M64.4,22.1C60.7,53,55.2,92,37.1,118.2c-11.7,16.9,21,30.8,24.1,8.2c2.5-17.9,8-35.1,9.8-53.2
		c1.8-17.3,1.1-34.1-1.1-51.3C69.6,18.4,64.8,19,64.4,22.1L64.4,22.1z"/>
	<path class="st0" d="M139.9,56.5c-1.5,16.4-11.5,30.4-20.7,43.5c-9.4,13.5-20.1,28.7-34,37.8c-22.3,14.6,8.6,38.8,18,20.6
		c9.5-18.5,22.1-35,31.2-53.8c7.3-15.3,15.1-31.4,10.3-48.4C144,53.6,140.1,53.6,139.9,56.5L139.9,56.5z"/>
	<path class="st0" d="M165.2,87.6c14.2-9.1,18.5-31.4,6.2-44c-11.2-11.4-33.4-7.6-44.3,2.6c-2.9,2.7-5.5,6-6.6,9.8
		c-2.5,8.2,2.1,17.1,8.4,22.9c7.7,6.9,18,13.9,29,11.7C160.4,90.1,162.9,89,165.2,87.6z"/>
	<path class="st0" d="M82.8,51.5C106.9,36.2,100.3,0.3,70.5,0C53.2-0.1,35.8,13.5,40.2,32.1c3.2,13.3,21.8,25,35.2,22.4
		C78,54,80.5,52.9,82.8,51.5z"/>
	<path class="st7" d="M144.2,76.8c-18.6-9.3,1.5-41.9,16.8-26.9C172.5,61.2,160.2,84.8,144.2,76.8z"/>
	<path class="st8" d="M157.3,63c0.1,2.5-0.1,5-1.4,7.1c-1.7,2.9-3.8,4-7.1,3.9c-3.7-0.1-6.1-4.3-5.6-7.6c-0.1,0.4,1.3-4.2,0.6-1.5
		c0.1-0.3,0.1-0.6,0.1-0.9c0,1,0,1-0.1,0.3c-0.4-3.7,2.4-7.1,6-7.5C153.3,56.5,157.2,59.2,157.3,63L157.3,63z"/>
	<path class="st7" d="M60,38c-18.7-9.3,1.5-41.9,16.7-26.9C88.3,22.5,76,46,60,38z"/>
	<path class="st8" d="M73.1,24.2c0.1,2.5-0.1,5-1.4,7.1c-1.7,2.9-3.8,4-7.1,3.9c-3.7-0.1-6.1-4.3-5.6-7.6c-0.1,0.4,1.3-4.2,0.6-1.5
		c0.1-0.3,0.1-0.6,0.1-0.9c0,1,0,1-0.1,0.3c-0.4-3.7,2.4-7.1,6-7.5C69.1,17.7,72.9,20.5,73.1,24.2L73.1,24.2z"/>
</g>
</svg>
