<?xml version="1.0" encoding="utf-8"?>
<!-- Generator: Adobe Illustrator 22.0.0, SVG Export Plug-In . SVG Version: 6.00 Build 0)  -->
<svg version="1.1" id="Layer_1" xmlns="http://www.w3.org/2000/svg" xmlns:xlink="http://www.w3.org/1999/xlink" x="0px" y="0px"
	 viewBox="0 0 394 256.3" style="enable-background:new 0 0 394 256.3;" xml:space="preserve">
<style type="text/css">
	.st0{fill:#BF974D;}
	.st1{fill:#9859A3;}
	.st2{fill:#894696;}
	.st3{fill:#A477AC;}
	.st4{fill:#B1843A;}
	.st5{fill:#FFFFFF;}
	.st6{fill:#010101;}
	.st7{fill:#966727;}
</style>
<g>
	<g>
		<path class="st0" d="M39.7,142.5c-0.3,13.2,4.9,26.1,8.5,38.2c4.2,14.2,5.9,31.3,15.1,44.1c9.2,12.6,26,19.1,40.2,22.6
			c15.9,3.9,28.8,6.5,45.2,4c17-2.6,30.9-6.3,48.2-4.1c23.3,3,46.2,4,69.9,5.1c8.4,0.4,16.8,1.1,25.3,1.8
			c18.8,1.5,37.6,3.1,56.5,1.3c6.6-0.6,46,2.6,35.6-10c-3.5-4.2-12.4-2-17.4-6c-4.7-3.8-5.9-9.6-9.4-14.1
			c-8.6-11.4-20.6-23.5-31.4-32.9c-12.2-10.6-30.6-17.2-45.5-22.7c-31.8-11.7-65.4-17.9-99-22.1c-18.8-2.4-37.7-4.8-55.3-10
			c-16-4.8-31.4-13-47.2-19.2c-15.9-6.3-32.9-5.3-37.9,14.1C40.2,135.9,39.8,139.2,39.7,142.5z"/>
		<path class="st1" d="M169.1,195.2c-17.7-3.4-25.3-14.4-32.3-29.9C117,121.7,164.4,59.4,195.7,34.2c25.6-20.6,54.4-36,88.2-34
			c33.6,2,70.3,21.6,90.2,49.2c47.1,65.2,5.1,147.1-68,169c-15.6,4.7-32.6,5.2-47.9-1.1c-9.5-4-14.4-12.8-23.6-16.9
			c-7.3-3.3-14.9-3.3-22.7-3C197.7,197.9,183.2,197.9,169.1,195.2z"/>
		<path class="st2" d="M223.9,197.6c-7.8-12.2-12.7-26.8-16.1-40.3c-4.8-19.3-3.5-37,6.1-54.6c17.9-32.9,62.7-57.7,97-33.8
			c24.6,17.2,31.2,58.5,13.1,82.3c-9.4,12.3-24.8,16.8-39.7,14.3c-18.6-3.1-31.2-18.1-32.5-36.7c-1.8-26.1,32.7-45,47.5-19.2
			c5.2,9.1,2.2,19.9-7,24.8c-12.4,6.5-24.5-2.8-18.4-15.7c2.8-6,11.7-0.8,8.8,5.2c2,2.2,4,2.5,6,0.8c1.8-0.9,2.7-2.8,2.8-4.7
			c0.3-3-1.4-6.1-3.3-8.3c-7.2-8.6-18-3.3-23.2,4.5c-5.6,8.4-3.1,19.4,1.8,27.4c5.5,9,15.5,12.2,25.5,12.5
			c34.2,1,36.7-43.1,24.3-65.4c-21.5-38.9-70.1-16.8-89.9,11c-11,15.5-13.4,32-9.6,50.3c4.1,19.7,12.5,42,28.5,55
			c1,0.8,1.6,1.8,1.7,2.8L223.9,197.6z"/>
		<path class="st3" d="M296.5,35.2c-11.4-1.4-75.7,18-66.3-9.8c5.2-15.4,38.1-19.7,51.7-18.9c16.2,0.9,35.1,3.4,48.7,12.9
			c10.2,7.1,13.2,19-2.2,20.8C317.8,41.4,306.9,36.5,296.5,35.2z"/>
		<path class="st0" d="M92.3,127.4c-4-29.7,36.6-47.2,34.7-76.7c0.1,1-16.4,17.3-18.6,19.7C92,88.1,79.2,108.9,66.7,129.5
			L92.3,127.4z"/>
		<path class="st0" d="M58.5,136.6c-2.6-18.9-12.1-38-17.4-56.4c-3.3-11.2-3.6-26.7-12.3-35c-8.7,5.6,5,44.1,6.9,53.4
			c3.5,16.7,6.1,37.3,13.5,52.3L58.5,136.6z"/>
		<path class="st0" d="M18.5,13.6C-1.8,17.1-5.3,37.5,7.7,51.7C23.6,69,55.3,55.7,50.3,31C48,19.4,28.9,11.8,18.5,13.6z"/>
		<path class="st0" d="M120.1,36.5C99.8,40,96.3,60.4,109.3,74.6c15.9,17.3,47.6,4,42.6-20.7C149.6,42.3,130.5,34.7,120.1,36.5z"/>
		<path class="st4" d="M39.7,142.5c-0.3,13.2,4.9,26.1,8.5,38.2c4.2,14.2,5.9,31.3,15.1,44.1c9.2,12.6,26,19.1,40.2,22.6
			c15.9,3.9,28.8,6.5,45.2,4c17-2.6,30.9-6.3,48.2-4.1c23.3,3,46.2,4,69.9,5.1c8.4,0.4,16.8,1.1,25.3,1.8
			c-10.2-3.8-20.4-8.4-30.6-11.3c-17.1-4.9-33.2,2.8-50.2-0.8c-7.5-1.6-15-5.1-22.5-6.2c-8.3-1.2-16.2,1.5-24.7,1.1
			c-15.8-0.8-36.5-5.8-49-16.7c-12.2-10.6-12.3-28.9-15.4-43c-4-18.1-16.3-52.4-40.1-50.5C48.5,127.7,42.6,134.1,39.7,142.5z"/>
		<path class="st3" d="M197.9,205.5c11.1-2.1,36.1-10.2,13.4-18.3c-11.1-4-23.9-0.6-34.9-4.4c-15-5.2-31.3-13.2-37.7-28.9
			c-2.7-6.7-0.2-15.2-4-21.4c-4-6.5-13-9.8-16.8-1c-5.7,13.3,6.5,37.2,14.4,47.2c10.1,12.8,24.7,19.8,40,24.3
			C181.6,205.8,188.6,207.3,197.9,205.5z"/>
	</g>
	<g>
		<path class="st5" d="M124.4,72.5c-17.3,7.1-27.5-25.8-8.3-27.2C130.6,44.2,139.3,66.4,124.4,72.5z"/>
		<path class="st6" d="M122.7,55.5c1.7,1.4,3.3,3,4,5.2c1,2.8,0.5,5-1.5,7.1c-2.3,2.4-6.5,1.6-8.4-0.7c0.2,0.3-2.1-3.4-0.7-1.2
			c-0.2-0.2-0.3-0.4-0.5-0.6c0.6,0.6,0.7,0.6,0.1,0.2c-2.7-1.9-3.4-5.8-1.5-8.5C116,54.4,120.1,53.4,122.7,55.5L122.7,55.5z"/>
	</g>
	<g>
		<path class="st5" d="M24.7,49.6C7.4,56.7-2.8,23.8,16.4,22.4C30.9,21.3,39.6,43.5,24.7,49.6z"/>
		<path class="st6" d="M23.1,32.5c1.7,1.4,3.3,3,4,5.2c1,2.8,0.5,5-1.5,7.1c-2.3,2.4-6.5,1.6-8.4-0.7c0.2,0.3-2.1-3.4-0.7-1.2
			c-0.2-0.2-0.3-0.4-0.5-0.6c0.6,0.6,0.7,0.6,0.1,0.2c-2.7-1.9-3.4-5.8-1.5-8.5C16.4,31.4,20.5,30.5,23.1,32.5L23.1,32.5z"/>
	</g>
	<g>
		<g>
			<path class="st7" d="M50.1,141.8c4.4,3.2,10.2,2.5,15.3,2.4c2.7,0,3.5-4.5,0.7-4.9c-4.7-0.7-9.3-1.4-14-2.1
				c-3.1-0.5-4.5,4.3-1.3,4.8c4.7,0.7,9.3,1.4,14,2.1c0.2-1.6,0.4-3.3,0.7-4.9c-4.2,0-9.1,0.8-12.8-1.8
				C50,135.6,47.5,139.9,50.1,141.8z"/>
		</g>
	</g>
</g>
</svg>
