<?xml version="1.0" encoding="utf-8"?>
<!-- Generator: Adobe Illustrator 22.0.0, SVG Export Plug-In . SVG Version: 6.00 Build 0)  -->
<svg version="1.1" id="Layer_1" xmlns="http://www.w3.org/2000/svg" xmlns:xlink="http://www.w3.org/1999/xlink" x="0px" y="0px"
	 viewBox="0 0 391.3 284.1" style="enable-background:new 0 0 391.3 284.1;" xml:space="preserve">
<style type="text/css">
	.st0{fill:#FFD256;}
	.st1{fill:#F69E23;}
	.st2{fill:#F0B923;}
	.st3{fill:#F05674;}
	.st4{fill:#F16888;}
	.st5{fill:#E64970;}
	.st6{fill:#F490AD;}
	.st7{fill:#FFFFFF;}
	.st8{fill:#010101;}
</style>
<g>
	<g>
		<g>
			<path class="st0" d="M89.8,41.5c-4,7.5-1.6,18.9-1.9,27.1c-0.4,12.1-1.9,24.2-4.1,36c-1.8,9.7,13.2,13.6,14.7,4.1
				c2.1-13.3,3.4-26.6,2.6-40.1c-0.5-8.5-1.2-22.5-9.4-27.5C91.1,40.7,90.2,40.9,89.8,41.5L89.8,41.5z"/>
			<path class="st0" d="M36.8,50.3c-1.4,9,6.3,18.3,9.8,26.2c5.8,12.9,11.7,24.3,14.9,38.1c2.3,9.9,16.7,5.6,15-4.1
				c-2.2-12.7-9.1-24.3-15.9-35c-3.3-5.2-7.3-9.8-10.7-14.9c-2.9-4.4-5.3-9.1-10.2-11.4C38.6,48.6,37,48.9,36.8,50.3L36.8,50.3z"/>
			<path class="st0" d="M358.9,272.8c-17.1,17.8-58.2,9.4-81,9.2c-31.9-0.2-63.5-5-95.5-6.4c-15.4-0.7-31.6-3.2-47.4,0.5
				c-18.7,4.3-31,3.4-38.9-1.5c-4-2.4-6.9-5.8-9-10c-0.4-5.8-1.3-11.8-2.6-17.9c-1.3-6.1-3-12.4-4.8-18.8
				c-8.9-31.3-21.1-60.5-22.3-94.6c0-1.6,0.1-3.3,0.3-4.9l0,0c1.6-17.6,11.1-36.1,29.9-39.5c11.3-1,19.7,7.7,27.7,12.7
				c26.9,24.1,45,56.6,79.2,72.2c5.2,2.5,10.3,4.8,15.5,7.2s10.4,4.8,15.8,7.2c6.4,3,60.7,30.9,98.1,54.2
				C346.4,256.3,362.8,268.7,358.9,272.8z"/>
			<path class="st1" d="M168,211c-0.4,0.4-0.8,0.9-1.1,1.4c0.9-1.2,0.8-1-0.4,0.5c-0.8,1.3-0.9,2.6-0.9,4.1c0,1,0.1,2.1,0.1,3.1
				c0.1,2.4,1.2,4.6,3.3,5.8c2.4,1.4,6.2,1.2,8.1-1c0.6-0.8,1.3-1.5,1.8-2.4c0.8-1.5,1-2.7,1.2-4.4c0.2-1.5-0.5-3.1-0.7-4.6
				c-0.2-1.7-1.8-3.4-3.2-4.2c-1.6-0.9-3.6-1.2-5.4-0.7c-3.7,1-5.9,4.9-4.9,8.6c0.2,0.6,0.4,1.2,0.6,1.8c0.4,1.2-0.1-1.9-0.1-0.6
				c0-0.4,0.1-0.8,0.1-1.2c0.5-1,0.5-1.2,0.1-0.5c4.1,0.5,8.2,1.1,12.2,1.6c-0.2-1-0.3-2.1-0.5-3.1c-0.3-2.3-1.8-3.9-3.6-5.1
				C172.7,208.8,169.7,209.4,168,211L168,211z"/>
			<path class="st1" d="M191.2,223v-0.1c-1.7,0.5-3.5,1-5.2,1.4c0.1,0.3,0.2,0.6,0.3,0.8c0.4,1.3,1.7,2.1,3.1,1.8
				c1.3-0.3,2.2-1.8,1.8-3.1v-0.1c-0.4-1.1-1.2-1.8-2.4-1.8c-1,0-2.2,0.7-2.4,1.8v0.1c1.6,0.4,3.2,0.9,4.8,1.3
				c0-0.3,0.1-0.6,0.1-0.8c0.2-1.5-0.3-2.9-1.9-3.3c-1.3-0.4-3.1,0.4-3.3,1.9v0.1c-0.2,1.7,0.7,3.5,2.6,3.5
				C190.3,226.5,191.8,224.7,191.2,223L191.2,223z"/>
			<path class="st1" d="M174.8,230.7c-0.1,0.1-0.2,0.1-0.3,0.2c-1.7,0.9-2.7,2.8-2.7,4.7c0,2.5,1.7,4.4,4,5.2c0.1,0,0.2,0.1,0.4,0.1
				c3.5,1.2,7.1-1.9,7.1-5.4C183.2,231.2,178.5,228.6,174.8,230.7L174.8,230.7z"/>
			<path class="st0" d="M85.1,2c33.8-12.6,45.1,38,18.8,53.7C67.1,77.6,51.8,14.5,85.1,2z"/>
			<path class="st0" d="M18.4,19.5c33.8-12.6,45.1,38,18.8,53.7C0.4,95.1-14.8,31.9,18.4,19.5z"/>
			<path class="st2" d="M358.9,272.8c-17.1,17.8-58.2,9.4-81,9.2c-31.9-0.2-63.5-5-95.5-6.4c-15.4-0.7-31.6-3.2-47.4,0.5
				c-18.7,4.3-31,3.4-38.9-1.5c-4-2.4-6.9-5.8-9-10c-0.4-5.8-1.3-11.8-2.6-17.9c-1.3-6.1-3-12.4-4.8-18.8
				c-8.9-31.3-21.1-60.5-22.3-94.6c0-1.6,0.1-3.3,0.3-4.9c1,10.9,5.3,21.8,8.1,32c5.2,18.8,12.4,36,19,54.2
				c4.9,13.7,6.4,28.9,21.5,36.2c13.8,6.7,31.6,3.9,46.2,6.7c31.6,6,62.2,9.6,92.6,16.5c13.9,3.2,30.1,4.6,44,3.5
				c12-1,35.3,2.7,45-3.3c7.4-4.5,5.5-11.7,0.4-16.8c-7.3,0.6-16.4-3.2-13.4-11.3c0.6-1.6,1.5-2.9,2.7-3.8
				C346.4,256.3,362.8,268.7,358.9,272.8z"/>
			<path class="st1" d="M64.2,128.1c1.7,5.7,6,7.2,11.6,7.8c5.3,0.5,10.9-1.9,12.7-7.2c1.6-4.7-4-2-5.4-2.3
				c-2.6-0.6-5.7,0.8-8.3,0.9c-2.3,0.1-6-0.7-8.2-1.5C65.2,125.2,63.8,126.8,64.2,128.1L64.2,128.1z"/>
		</g>
		<g>
			<g>
				<path class="st3" d="M386.5,186.1c0,0.8,0,1.5,0,2.3c-0.1,5-0.7,10-1.9,14.9c-0.4,1.7-0.9,3.3-1.4,4.9
					c-4.7,14.4-14,27.2-26.4,34.6c-6.7,4-14.4,6.3-22.7,6.4c-15.1,0.1-27.9-0.1-41.4-6.1c-1.7-0.7-3.3-1.6-5-2.5
					c-0.7-0.4-1.4-0.8-2.1-1.2c-0.6-0.3-1.1-0.7-1.7-1c0,0-0.1,0-0.1-0.1c-0.1-0.1-0.3-0.2-0.4-0.3c-0.9-0.6-1.8-1.1-2.7-1.7
					c-1.1-0.7-2.2-1.5-3.4-2.2c-1-0.7-2-1.4-3-2.1s-2-1.4-2.9-2.1c-3.9-2.9-7.7-5.8-11.4-8.8l-0.1-0.1c-3.9-3.1-7.7-6.1-11.6-8.9
					c-11.2-8.2-23.1-14.7-34.8-22.6c-12.5-8.3-39.8-23.3-36.4-41.7c0.1-0.5,0.2-1,0.3-1.4v-0.1c0.1-0.5,0.2-0.9,0.4-1.4
					c0.1-0.5,0.3-1,0.5-1.5s0.3-0.9,0.5-1.4v-0.1c0.2-0.5,0.4-0.9,0.6-1.4c0.2-0.4,0.4-0.8,0.6-1.2c0.2-0.4,0.5-0.9,0.7-1.3
					c0.2-0.4,0.5-0.8,0.7-1.2s0.5-0.8,0.8-1.3c0.1-0.2,0.3-0.4,0.4-0.6c0.3-0.5,0.7-1,1-1.5c0.2-0.2,0.3-0.4,0.5-0.6
					c0.3-0.3,0.5-0.6,0.8-1c0.4-0.5,0.8-1,1.2-1.4c0.4-0.5,0.8-0.9,1.3-1.4c0.4-0.4,0.8-0.8,1.2-1.3c0-0.1,0.1-0.1,0.1-0.1
					c0.5-0.5,0.9-0.9,1.4-1.4s0.9-0.9,1.4-1.4c1-0.9,1.9-1.8,3-2.6c1-0.9,2.1-1.7,3.1-2.5c1.1-0.8,2.2-1.6,3.3-2.4
					c0.5-0.4,1.1-0.8,1.7-1.2c0.6-0.4,1.1-0.8,1.7-1.1c0.5-0.3,0.9-0.6,1.4-0.9c1.2-0.8,2.5-1.6,3.7-2.3c2.4-1.4,4.8-2.8,7.1-4
					c0.6-0.3,1.1-0.6,1.7-0.8c0.6-0.3,1.2-0.6,1.8-0.9c0.6-0.3,1.3-0.6,1.9-0.9c0.2-0.1,0.4-0.2,0.6-0.3c0.7-0.3,1.4-0.6,2.1-0.9
					c0.9-0.4,1.7-0.7,2.6-1.1c0.8-0.3,1.6-0.6,2.3-0.9c0.5-0.2,1-0.4,1.5-0.5c0.5-0.2,1-0.3,1.5-0.5c1-0.3,1.9-0.6,2.8-0.9
					c0.7-0.2,1.3-0.4,2-0.5c0.5-0.1,1-0.3,1.6-0.4c0.3-0.1,0.7-0.2,1-0.2c1-0.2,2.1-0.4,3.2-0.6c0.5-0.1,1-0.2,1.5-0.3
					c0.4-0.1,0.9-0.1,1.3-0.2c0.5-0.1,1.1-0.1,1.6-0.2c0.1,0,0.3,0,0.4-0.1c0.7-0.1,1.3-0.2,2-0.2c0.7-0.1,1.5-0.1,2.2-0.2
					c0.8-0.1,1.5-0.1,2.3-0.2c0.8-0.1,1.5-0.1,2.3-0.1c1.5-0.1,3.1-0.1,4.7-0.1c1,0,1.9,0,2.9,0c0.9,0,1.9,0,2.8,0.1
					c0.6,0,1.1,0.1,1.7,0.1c0.7,0,1.4,0.1,2.2,0.1c0.4,0,0.8,0.1,1.2,0.1c0.7,0.1,1.5,0.1,2.2,0.2c0.2,0,0.4,0,0.6,0.1
					c5.8,0.6,11.6,1.5,17.4,2.7c0.6,0.1,1.1,0.2,1.7,0.4c0.6,0.1,1.2,0.3,1.8,0.4c1.3,0.3,2.7,0.6,4,1c0.9,0.2,1.8,0.5,2.6,0.7
					c0,0,0,0,0.1,0c2.2,0.6,4.4,1.2,6.5,1.9c1.1,0.3,2.2,0.7,3.2,1c0.8,0.3,1.6,0.5,2.3,0.8c2.4,0.8,4.7,1.7,7,2.6
					c4.7,1.9,9.2,3.9,13.3,6c2.2,1.1,4.3,2.3,6.5,3.7c0.1,0,0.1,0.1,0.1,0.1c0.7,0.4,1.4,0.9,2.1,1.3c3.9,2.5,7.7,5.3,11.3,8.4
					c9.1,7.6,17.1,16.9,22.8,27.2l0,0c1.9,3.5,3.5,7.1,4.9,10.8C385,172.9,386.3,179.4,386.5,186.1z"/>
				<path class="st4" d="M389.2,188.8c-1.1,4.9-2.7,9.8-4.6,14.5c-0.7,1.7-1.4,3.4-2.2,5c-4.5,9.1-10.6,17-17.9,21.9
					c-15.7,10.5-45.6,9.3-61-2.1c-16.2-12-22.7-34.3-21.7-52.5c1.1-18.8,7.4-35.4,20.2-46.2c11.3-9.5,25.7-12.4,39.6-10.4
					c0.8,0.1,1.5,0.2,2.3,0.4c6.5,1.2,12.8,3.4,18.6,6.5c1.5,0.8,3.1,1.7,4.5,2.6l0,0c4.8,3.1,9.2,6.8,12.8,11
					c5.6,6.4,9.5,14,10.8,22.3C392,169.6,391.4,179.2,389.2,188.8z"/>
				<path class="st5" d="M379.9,139.3c2.9,7.2,4.5,14.9,3.8,22.4c-0.1,0.9-0.2,1.8-0.4,2.7c-1.9,9.7-9.4,19.7-20.4,15.4
					c-9.1-3.6-17.8-20.9-7.4-28.1c10.7-7.4,22.9,6.8,16,17.2c-2.1,3.2-7.3,0.2-5.1-3c2.5-3.8-1-13.7-6.5-9.9
					c-4.2,2.9-2.9,9.8-0.6,13.5c3.4,5.2,10.8,7.2,15.2,1.9c4.4-5.2,4.1-13.3,2.6-20.3c-0.5-2.2-1.1-4.3-1.7-6.2
					c-2-5.9-4.8-11.4-8.4-16.5L379.9,139.3z"/>
				<path class="st4" d="M258.5,156.9c-1.2,4-1.9,8-1.8,11.9c0.2,3.7,0.9,7.8,2,11.9c2.3,8.7,6.2,17.8,9.6,25
					c3.1,6.6,6.2,13.2,10.7,18.9c4.7,5.9,13.1,10.6,13.5,18.6c-1.7-0.7-3.3-1.6-5-2.5c-0.7-0.4-1.4-0.8-2.1-1.2
					c-0.6-0.3-1.1-0.7-1.7-1c0,0-0.1,0-0.1-0.1c-0.1-0.1-0.3-0.2-0.4-0.3c-0.9-0.6-1.8-1.1-2.7-1.7c-1.1-0.7-2.2-1.5-3.4-2.2
					c-1-0.7-2-1.4-3-2.1s-2-1.4-2.9-2.1c-3.9-2.9-7.7-5.8-11.4-8.8l-0.1-0.1c-3.9-3.1-7.7-6.1-11.6-8.9
					c-11.2-8.2-23.1-14.7-34.8-22.6c-12.5-8.3-39.8-23.3-36.4-41.7c0.1-0.5,0.2-1,0.3-1.4v-0.1c0.1-0.5,0.2-0.9,0.4-1.4
					c0.1-0.5,0.3-1,0.5-1.5s0.3-0.9,0.5-1.4V142c0.2-0.5,0.4-0.9,0.6-1.4c0.2-0.4,0.4-0.8,0.6-1.2c0.2-0.4,0.5-0.9,0.7-1.3
					c0.2-0.4,0.5-0.8,0.7-1.2s0.5-0.8,0.8-1.3c0.1-0.2,0.3-0.4,0.4-0.6c0.3-0.5,0.7-1,1-1.5c0.2-0.2,0.3-0.4,0.5-0.6
					c0.3-0.3,0.5-0.6,0.8-1c0.4-0.5,0.8-1,1.2-1.4c0.4-0.5,0.8-0.9,1.3-1.4c0.4-0.4,0.8-0.8,1.2-1.3c0-0.1,0.1-0.1,0.1-0.1
					c0.5-0.5,0.9-0.9,1.4-1.4s0.9-0.9,1.4-1.4c1-0.9,1.9-1.8,3-2.6c1-0.9,2.1-1.7,3.1-2.5c1.1-0.8,2.2-1.6,3.3-2.4
					c0.5-0.4,1.1-0.8,1.7-1.2c0.6-0.4,1.1-0.8,1.7-1.1c0.5-0.3,0.9-0.6,1.4-0.9c1.2-0.8,2.5-1.6,3.7-2.3c2.4-1.4,4.8-2.8,7.1-4
					c0.6-0.3,1.1-0.6,1.7-0.8c0.6-0.3,1.2-0.6,1.8-0.9c0.6-0.3,1.3-0.6,1.9-0.9c0.2-0.1,0.4-0.2,0.6-0.3c0.7-0.3,1.4-0.6,2.1-0.9
					c0.9-0.4,1.7-0.7,2.6-1.1c0.8-0.3,1.6-0.6,2.3-0.9c0.5-0.2,1-0.4,1.5-0.5c0.5-0.2,1-0.3,1.5-0.5c1-0.3,1.9-0.6,2.8-0.9
					c0.7-0.2,1.3-0.4,2-0.5c0.5-0.1,1-0.3,1.6-0.4c0.3-0.1,0.7-0.2,1-0.2c1-0.2,2.1-0.4,3.2-0.6c0.5-0.1,1-0.2,1.5-0.3
					c0.4-0.1,0.9-0.1,1.3-0.2c0.5-0.1,1.1-0.1,1.6-0.2c0.1,0,0.3,0,0.4-0.1c0.7-0.1,1.3-0.2,2-0.2c0.7-0.1,1.5-0.1,2.2-0.2
					c0.8-0.1,1.5-0.1,2.3-0.2c0.8-0.1,1.5-0.1,2.3-0.1c1.5-0.1,3.1-0.1,4.7-0.1c1,0,1.9,0,2.9,0c0.9,0,1.9,0,2.8,0.1
					c0.6,0,1.1,0.1,1.7,0.1c0.7,0,1.4,0.1,2.2,0.1c0.4,0,0.8,0.1,1.2,0.1c0.7,0.1,1.5,0.1,2.2,0.2c0.2,0,0.4,0,0.6,0.1
					c5.8,0.6,11.6,1.5,17.4,2.7c0.6,0.1,1.1,0.2,1.7,0.4c0.6,0.1,1.2,0.3,1.8,0.4c1.3,0.3,2.7,0.6,4,1c0.9,0.2,1.8,0.5,2.6,0.7
					c0,0,0,0,0.1,0c2.2,0.6,4.4,1.2,6.5,1.9c1.1,0.3,2.2,0.7,3.2,1c0.8,0.3,1.6,0.5,2.3,0.8c2.4,0.8,4.7,1.7,7,2.6
					c-19.8-1.5-40.7,9.7-52.4,26.7C265.2,141.8,260.9,149.3,258.5,156.9z"/>
				<path class="st6" d="M280.6,235.2c-19.6-15.8-36.3-36-54.8-52.9c-7.5-6.8-42.1-56.7-51-35.8c-10.7,25,30.7,43.2,46.3,51.1
					c10.7,5.5,21.3,11.8,31.2,18.4c10.8,7.2,21.9,14.4,31.8,22.6L280.6,235.2z"/>
			</g>
			<path class="st6" d="M232.2,151c9.6-9.7,0.7-22-11.6-18.9c-8,2-16.3,13.7-8.7,20.8C217.5,158.2,227.4,155.9,232.2,151z"/>
			<path class="st6" d="M247.5,181.7c6.2-6.2,0.4-14.1-7.5-12.1c-5.1,1.3-10.5,8.8-5.6,13.4C238,186.3,244.4,184.8,247.5,181.7z"/>
			<path class="st6" d="M205,127.1c-4.7,4.8-13.5,7.5-20.2,5.1c0.4-0.5,0.8-1,1.2-1.4c0.4-0.5,0.8-0.9,1.3-1.4
				c0.4-0.4,0.8-0.8,1.2-1.3c0-0.1,0.1-0.1,0.1-0.1c0.5-0.5,0.9-0.9,1.4-1.4s0.9-0.9,1.4-1.4c1-0.9,1.9-1.8,3-2.6
				c1-0.9,2.1-1.7,3.1-2.5c1.1-0.8,2.2-1.6,3.3-2.4c0.5-0.4,1.1-0.8,1.7-1.2c0.6-0.4,1.1-0.8,1.7-1.1c0.5-0.3,0.9-0.6,1.4-0.9
				c1.2-0.8,2.5-1.6,3.7-2.3C210.9,116.5,210,122.1,205,127.1z"/>
			<path class="st6" d="M266,131.8c9.4-9.4,0.6-21.4-11.3-18.3c-7.8,2-15.8,13.3-8.4,20.2C251.7,138.8,261.3,136.5,266,131.8z"/>
			<path class="st6" d="M306.7,191.8c9.4-9.4,0.6-21.4-11.3-18.3c-7.8,2-15.8,13.3-8.4,20.2C292.4,198.8,302,196.6,306.7,191.8z"/>
			<path class="st6" d="M338.1,222.4c6.2-6.2,0.4-14.1-7.5-12.1c-5.1,1.3-10.5,8.8-5.6,13.4C328.7,226.9,335,225.5,338.1,222.4z"/>
			<path class="st6" d="M352,201.5c8.3-8.3,0.6-18.9-10-16.2c-6.9,1.7-14,11.8-7.4,17.9C339.3,207.6,347.9,205.6,352,201.5z"/>
			<path class="st6" d="M389.2,188.8c-1.1,4.9-2.7,9.8-4.6,14.5c-0.4,1.7-0.9,3.3-1.4,4.9c-0.3,0-0.6,0-0.8,0
				c-2.5,0-4.8-0.7-6.6-2.4c-6.3-5.9,0.5-15.5,7.1-17.1c1.3-0.3,2.5-0.4,3.7-0.4C387.4,188.4,388.3,188.5,389.2,188.8z"/>
			<path class="st6" d="M310.9,156.9c6.5-6.5,0.4-14.8-7.8-12.7c-5.4,1.4-11,9.2-5.8,14.1C300.9,161.7,307.6,160.1,310.9,156.9z"/>
			<path class="st6" d="M344.8,147.3c8.3-8.3,0.6-19-10-16.3c-6.9,1.7-14,11.8-7.5,18C332,153.5,340.6,151.5,344.8,147.3z"/>
			<path class="st6" d="M362.5,125.7c-2,1.5-4.7,2.6-7.4,2.9c-3.2,0.4-6.4-0.3-8.7-2.4c-1.9-1.8-2.6-3.8-2.6-6c0-0.3,0-0.7,0.1-1
				C350.3,120.4,356.6,122.6,362.5,125.7z"/>
			<path class="st6" d="M295.9,101.1c0,2.5-1,5.2-3.5,7.6c-4.2,4.2-12.7,6.2-17.5,1.7c-4-3.7-2.9-8.9,0.1-12.8
				c5.8,0.6,11.6,1.5,17.4,2.7c0.6,0.1,1.1,0.2,1.7,0.4C294.7,100.9,295.3,101,295.9,101.1z"/>
			<path class="st6" d="M252,97.4c-0.4,2-1.4,4-3.3,5.9c-4.2,4.2-12.7,6.2-17.5,1.7c-0.9-0.8-1.5-1.7-2-2.7c0.5-0.2,1-0.4,1.5-0.5
				c0.5-0.2,1-0.3,1.5-0.5c1-0.3,1.9-0.6,2.8-0.9c0.7-0.2,1.3-0.4,2-0.5c0.5-0.1,1-0.3,1.6-0.4c0.3-0.1,0.7-0.2,1-0.2
				c1-0.2,2.1-0.4,3.2-0.6c0.5-0.1,1-0.2,1.5-0.3c0.4-0.1,0.9-0.1,1.3-0.2c0.5-0.1,1.1-0.1,1.6-0.2c0.1,0,0.3,0,0.4-0.1
				c0.7-0.1,1.3-0.2,2-0.2C250.5,97.5,251.3,97.4,252,97.4z"/>
		</g>
	</g>
	<g>
		<path class="st7" d="M93.7,46.6c-15.8,6.5-25-23.5-7.6-24.8C99.3,20.8,107.3,41,93.7,46.6z"/>
		<path class="st8" d="M92.2,31.1c1.6,1.3,3,2.8,3.6,4.7c0.9,2.6,0.4,4.5-1.4,6.5c-2.1,2.2-5.9,1.4-7.7-0.6c0.2,0.2-1.9-3.1-0.6-1.1
			c-0.1-0.2-0.3-0.4-0.5-0.5c0.6,0.5,0.6,0.6,0.1,0.2c-2.5-1.7-3.1-5.3-1.4-7.8C86.1,30,89.8,29.1,92.2,31.1L92.2,31.1z"/>
	</g>
	<g>
		<path class="st7" d="M30.9,66c-15.8,6.5-25-23.5-7.6-24.8C36.5,40.2,44.4,60.4,30.9,66z"/>
		<path class="st8" d="M29.4,50.4c1.6,1.3,3,2.8,3.6,4.7c0.9,2.6,0.4,4.5-1.4,6.5c-2.1,2.2-5.9,1.4-7.7-0.6c0.2,0.2-1.9-3.1-0.6-1.1
			c-0.1-0.2-0.3-0.4-0.5-0.5c0.6,0.5,0.6,0.6,0.1,0.2c-2.5-1.7-3.1-5.3-1.4-7.8C23.3,49.4,27,48.5,29.4,50.4L29.4,50.4z"/>
	</g>
</g>
</svg>
